<?xml version="1.0" encoding="utf-8"?><svg id="daLayer_1" data-name="Layer 1" xmlns="http://www.w3.org/2000/svg" viewBox="0 0 125.43 78.39" width="32" height="20"><defs><style>.dacls-1{fill:#f9f9f9}.dacls-2{fill:#ee3a3f}.dacls-3{fill:#0067b2}.dacls-4{fill:#faac18}.dacls-5{fill:#6ab845}.dacls-6{fill:#231f20}</style></defs><title>payment-icons</title><rect class="dacls-1" width="125.43" height="78.39" rx="4.18" ry="4.18"/><path class="dacls-2" d="M34.37 31.22c-8.91 0-9.25 6.93-9.21 8.73 0 0-.44 8.11 9 8.11 8.1 0 8.5-5.09 8.5-5.09h-3.73s-.73 2.8-4.76 2.73c-5.18-.09-5.38-5.12-5.38-5.12h14.35s1.09-9.36-8.77-9.37m-5.47 6.91a5 5 0 0 1 5.38-4.54c5.1 0 5.1 4.54 5.1 4.54H28.91z"/><path class="dacls-3" d="M53.11 31.22c-4.48 0-6.4 2.65-6.4 2.65v-9h-3.59l.06 18.93s0 2.2-.16 3.66h3.49l.15-2.13s1.63 2.68 6.38 2.68 8.51-2.93 8.61-8.35-4.05-8.46-8.53-8.48m-.83 14.46c-5.65.07-5.56-6-5.56-6s-.21-5.84 5.55-6 5.57 6.12 5.57 6.12.09 5.8-5.56 5.88"/><path class="dacls-4" d="M78.23 43.77c0-2.45.08-4.64 0-6.18-.09-1.79.07-6.1-7.66-6.42 0 0-7.41-.67-8.18 4.84h3.79s.29-2.53 4.14-2.45c3.64.07 4.3 1.85 4.29 4h-4.16c-1.87 0-8.44.22-9.06 4.22-.73 4.76 3.52 6.24 6.84 6.22s5.22-1 6.62-2.8l.15 2.28h3.3s-.08-1.24-.07-3.69m-9.38 2s-3.6 0-3.81-2.87c-.23-3.09 5.54-2.92 5.54-2.92h4.07s.66 5.84-5.8 5.76"/><path class="dacls-5" d="M76.27 31.82h4.16l6.09 12.15 6.11-12.15h3.76L85.37 53.47h-4.03l3.19-6.01-8.26-15.64z"/><path class="dacls-6" d="M97.8 32.69v-.45h-.14v-.17h.14v-.23h.25v.23h.29v.17h-.29v.42l.14.11h.15v.13a.54.54 0 0 1-.23 0 .25.25 0 0 1-.31-.25M98.6 32.07h.25v.13a.42.42 0 0 1 .33-.15.37.37 0 0 1 .33.15.48.48 0 0 1 .37-.15.33.33 0 0 1 .38.33v.54H100v-.48a.2.2 0 0 0-.22-.21.21.21 0 0 0-.23.21v.48h-.24v-.48a.2.2 0 0 0-.22-.21.21.21 0 0 0-.23.21v.48h-.26v-.85z"/></svg>