<?xml version="1.0" encoding="utf-8"?><svg id="crLayer_1" data-name="Layer 1" xmlns="http://www.w3.org/2000/svg" viewBox="0 0 125.43 78.39" width="32" height="20"><defs><style>.crcls-1{fill:#0066b2}.crcls-2{fill:#f9a533}</style></defs><title>payment-icons</title><path class="crcls-1" d="M55.42 27.44l-3.83 23.53h6.13l3.83-23.53h-6.13zM46.44 27.44L40.6 43.62l-.69-3.48-2.07-10.58a2.62 2.62 0 0 0-2.91-2.12h-9.65l-.11.4a22.88 22.88 0 0 1 6.41 2.69L36.9 51h6.38L53 27.44h-6.6zM94.63 51h5.63l-4.9-23.53h-4.93a2.82 2.82 0 0 0-2.83 1.75L78.46 51h6.39l1.28-3.49h7.79zm-6.74-8.32l3.22-8.81 1.81 8.81h-5zM78.94 33.1l.88-5.1a17.69 17.69 0 0 0-5.51-1C71.26 27 64 28.35 64 34.81c0 6.08 8.48 6.16 8.48 9.35s-7.6 2.62-10.11.61L61.5 50a17.16 17.16 0 0 0 6.92 1.33c4.18 0 10.49-2.17 10.49-8.06 0-6.12-8.55-6.69-8.55-9.35s6-2.32 8.59-.87"/><path class="crcls-2" d="M39.91 40.14l-2.07-10.58a2.62 2.62 0 0 0-2.91-2.12h-9.65l-.11.4a23.75 23.75 0 0 1 9.09 4.56 18.34 18.34 0 0 1 5.64 7.74"/></svg>