<?xml version="1.0" encoding="utf-8"?><svg id="deLayer_1" data-name="Layer 1" xmlns="http://www.w3.org/2000/svg" viewBox="0 0 125.43 78.39" width="32" height="20"><defs><style>.decls-1{fill:#f9f9f9}.decls-2{fill:#ed1c2e}.decls-3{fill:#fcb131}</style></defs><title>payment-icons</title><rect class="decls-1" width="125.43" height="78.39" rx="4.18" ry="4.18"/><path class="decls-2" d="M103.85 35h.35l.08-.17-.08-.15h-.37V35m0 .81h-.32v-1.48h.58a.61.61 0 0 1 .35.08.45.45 0 0 1 .17.36.38.38 0 0 1-.24.36l.25.64h-.36l-.21-.57h-.23v.57zm.21.54a1.25 1.25 0 1 0-1.19-1.26 1.23 1.23 0 0 0 1.19 1.26m-1.56-1.26a1.56 1.56 0 1 1 1.56 1.64 1.61 1.61 0 0 1-1.56-1.64M80.14 24.13l-.43 2.79a4.78 4.78 0 0 0-2.34-.69c-1.95 0-3.32 2-3.32 4.81 0 2 .92 3.13 2.44 3.13a4.84 4.84 0 0 0 2.22-.66l-.46 2.93a7.73 7.73 0 0 1-2.31.38c-2.82 0-4.58-2.13-4.58-5.54 0-4.59 2.42-7.8 5.89-7.8a4.29 4.29 0 0 1 1.17.14l1.08.28.63.25M71.45 26h-.27c-.86 0-1.35.46-2.15 1.7l.23-1.59H66.9l-1.61 10.46h2.63c.94-6.39 1.18-7.49 2.44-7.49h.19a10.44 10.44 0 0 1 1-3h-.09M55.78 36.44a5.7 5.7 0 0 1-1.88.34c-1.34 0-2.07-.81-2.07-2.3a6 6 0 0 1 .07-.94l.16-1 .12-.83 1.14-7.13h2.6l-.3 1.55H57l-.37 2.54h-1.36L54.58 33a4.31 4.31 0 0 0 0 .43.72.72 0 0 0 .89.77 2 2 0 0 0 .7-.1l-.35 2.31M45.47 29.43a3 3 0 0 0 2 2.91c1.05.52 1.22.68 1.22 1.15 0 .65-.47.95-1.5.95a6.92 6.92 0 0 1-2.35-.44l-.36 2.41h.12l.48.1c.16 0 .38.06.68.09.62.06 1.1.09 1.44.09 2.75 0 4-1.11 4-3.49a2.86 2.86 0 0 0-1.84-2.91c-1.09-.52-1.22-.64-1.22-1.13s.43-.86 1.27-.86a14.28 14.28 0 0 1 1.87.16l.37-2.41a16.35 16.35 0 0 0-2.3-.21c-2.91 0-3.92 1.6-3.91 3.53M97.12 34.11c1.22 0 2.08-1.45 2.08-3.52 0-1.33-.49-2.05-1.39-2.05-1.19 0-2 1.46-2 3.51 0 1.37.45 2.06 1.34 2.06m3.85 2.46h-2.5l.13-1a3 3 0 0 1-2.42 1.16C94.3 36.71 93 35 93 32.37 93 28.9 95 26 97.31 26a3 3 0 0 1 2.51 1.43l.57-3.67H103zM62.6 30.13v-.53a1.19 1.19 0 0 0-1.24-1.35c-.83 0-1.42.67-1.67 1.87h2.91m1.47 6.22a8.69 8.69 0 0 1-2.69.42c-2.92 0-4.44-1.61-4.44-4.68 0-3.59 1.94-6.23 4.57-6.23 2.15 0 3.53 1.48 3.53 3.8a11.5 11.5 0 0 1-.33 2.58h-5.2a2.17 2.17 0 0 0 0 .32c0 1.22.78 1.84 2.3 1.84a5.91 5.91 0 0 0 2.71-.66zM34.96 36.57h-2.61l1.5-9.87-3.35 9.87h-1.79l-.22-9.81-1.58 9.81h-2.44l2.04-12.85h3.77l.1 7.95 2.54-7.95h4.07l-2.03 12.85zM43.6 36.57h-2.16v-1.08a3.2 3.2 0 0 1-2.74 1.27c-1.42 0-2.39-1.17-2.39-2.85 0-2.55 1.7-4 4.6-4A8 8 0 0 1 42 30a2.69 2.69 0 0 0 .1-.68c0-.69-.46-1-1.68-1a7.86 7.86 0 0 0-2.18.3l-.36.1-.23.07.35-2.34a9.93 9.93 0 0 1 3.14-.56c2.25 0 3.44 1.06 3.44 3.06a12.35 12.35 0 0 1-.2 2.05l-.55 3.7-.09.67-.07.53v.64m-1.9-4.65a4.35 4.35 0 0 0-.59 0c-1.48 0-2.23.54-2.23 1.59a.94.94 0 0 0 .94 1.07c1.06 0 1.84-1.07 1.88-2.62M86.55 36.57h-2.17l.05-1.08a3.19 3.19 0 0 1-2.74 1.27c-1.42 0-2.4-1.17-2.4-2.85 0-2.55 1.7-4 4.6-4A8 8 0 0 1 85 30a2.79 2.79 0 0 0 .1-.68c0-.69-.46-1-1.68-1a7.77 7.77 0 0 0-2.17.3l-.37.1-.23.07.35-2.34a9.93 9.93 0 0 1 3.13-.56c2.25 0 3.44 1.06 3.44 3.06a13.48 13.48 0 0 1-.24 2.05l-.55 3.7-.08.67-.07.53v.64m-1.9-4.65a4.31 4.31 0 0 0-.58 0c-1.49 0-2.24.54-2.24 1.59a1 1 0 0 0 .94 1.07c1.07 0 1.83-1.07 1.88-2.62M93.86 26a1.29 1.29 0 0 0-.26 0c-.86 0-1.35.46-2.15 1.7l.23-1.59h-2.37L87.7 36.57h2.62c.94-6.39 1.19-7.49 2.44-7.49a.68.68 0 0 1 .18 0 10.49 10.49 0 0 1 1-3h-.09"/><path class="decls-3" d="M85.45 46.68c0-2.63-1.3-4.68-3.75-4.68-2.81 0-4.64 2.49-4.64 6.16 0 2.63 1.08 4.77 3.74 4.77s4.64-1.9 4.64-6.25m-2.57 0c0 2.37-.73 3.76-1.89 3.76-.84 0-1.35-.91-1.35-2.32 0-1.66.75-3.55 1.95-3.55 1 0 1.3 1 1.3 2.11M77.91 40.15l-.4 2.78a4.3 4.3 0 0 0-2.19-.7c-1.83 0-3.1 2-3.1 4.82 0 2 .85 3.13 2.28 3.13a4.27 4.27 0 0 0 2.08-.66l-.42 2.93a6.84 6.84 0 0 1-2.17.38c-2.63 0-4.27-2.13-4.27-5.55 0-4.6 2.27-7.81 5.51-7.81a4.14 4.14 0 0 1 1.1.14l1 .28a6.28 6.28 0 0 1 .59.25M61.73 42.07a1 1 0 0 0-.25 0c-.79 0-1.26.46-2 1.7l.22-1.58h-2.22L56 52.6h2.44c.88-6.39 1.11-7.49 2.28-7.49h.18a11 11 0 0 1 .93-3h-.09M90 50c1.18 0 2-1.42 2-3.49 0-1.33-.45-2-1.29-2-1.11 0-1.9 1.45-1.9 3.52 0 1.36.42 2.05 1.25 2.05m3.61 2.46h-2.33l.12-1a2.79 2.79 0 0 1-2.26 1.16c-1.78 0-3-1.73-3-4.34 0-3.47 1.82-6.41 4-6.41a2.71 2.71 0 0 1 2.34 1.44l.54-3.67h2.4zM37.45 46.23v-.53a1.16 1.16 0 0 0-1.16-1.35c-.78 0-1.33.67-1.56 1.87h2.7m1.37 6.22a7.49 7.49 0 0 1-2.5.43c-2.73 0-4.15-1.61-4.15-4.68C32.16 44.61 34 42 36.43 42c2 0 3.3 1.48 3.3 3.8a12.81 12.81 0 0 1-.3 2.58h-4.87a3.16 3.16 0 0 0 0 .32c0 1.22.73 1.83 2.15 1.83a5.24 5.24 0 0 0 2.54-.66zM66.51 46.23v-.53a1.16 1.16 0 0 0-1.16-1.35c-.78 0-1.33.67-1.56 1.87h2.69m1.37 6.22a7.51 7.51 0 0 1-2.5.43c-2.73 0-4.16-1.61-4.16-4.68.03-3.58 1.81-6.19 4.3-6.19 2 0 3.3 1.48 3.3 3.8a12.41 12.41 0 0 1-.31 2.58h-4.85v.32c0 1.22.73 1.83 2.15 1.83a5.26 5.26 0 0 0 2.54-.66zM100.61 46.23v-.53a1.16 1.16 0 0 0-1.16-1.35c-.78 0-1.33.67-1.56 1.87h2.7m1.41 6.22a7.57 7.57 0 0 1-2.51.43c-2.73 0-4.16-1.61-4.16-4.68 0-3.58 1.82-6.23 4.27-6.23 2 0 3.3 1.48 3.3 3.8a12.36 12.36 0 0 1-.3 2.58h-4.88a2.88 2.88 0 0 0 0 .32c0 1.22.73 1.83 2.15 1.83a5.25 5.25 0 0 0 2.54-.66zM31.58 42.54a3.54 3.54 0 0 0-2-.6c-1 0-1.78.21-1.78 1.26 0 1.86 3.6 1.16 3.6 5.14 0 3.62-2.38 4.56-4.53 4.56a7.62 7.62 0 0 1-2.87-.68l.58-2.66a3.78 3.78 0 0 0 2.28.75c.77 0 2-.21 2-1.55 0-2.1-3.6-1.32-3.6-5 0-3.38 2.1-4.39 4.13-4.39a5.52 5.52 0 0 1 2.84.59l-.6 2.6M46 52.44a4.92 4.92 0 0 1-2.17.4c-2.14 0-3.46-2.14-3.46-4.73 0-3.4 1.91-6.11 4.73-6.11a5.16 5.16 0 0 1 2.29.69l-.54 2.49a3 3 0 0 0-1.63-.56c-1.33 0-2.22 1.2-2.22 3.38 0 1.23.68 2.25 1.75 2.25a2.94 2.94 0 0 0 1.63-.46L46 52.44M55.11 49.82c-.12.9-.24 1.77-.31 2.71h-2.35l.2-1.69c-.74 1.15-1.5 1.93-2.83 1.93s-2.28-1.55-2.28-3.58a13.22 13.22 0 0 1 .2-2.19l.67-4.84H51L50.29 47a11.57 11.57 0 0 0-.17 1.58 1 1 0 0 0 1 1.19c1.07 0 1.71-1.31 1.89-2.84l.72-4.77h2.53l-1.14 7.66M104.42 52.41h-.39v-1.73h-.58v-.38h1.54v.38h-.57v1.73zM107.05 52.41h-.37v-1.76h-.01l-.35 1.76h-.39l-.35-1.76v1.76h-.37V50.3h.58l.34 1.66h.01l.33-1.66h.58v2.11z"/></svg>