<?xml version="1.0" encoding="utf-8"?><svg data-name="Layer 1" xmlns="http://www.w3.org/2000/svg" viewBox="0 0 125.43 78.39" width="32" height="20"><title>payment-icons</title><path d="M70.56 29.71h5.68l.34 2 .06.06a6 6 0 0 1 .36-.5 6.49 6.49 0 0 1 3.63-1.88 5.94 5.94 0 0 1 5.19 1.52 7.11 7.11 0 0 1 1.75 2.88 15.65 15.65 0 0 1 .76 4.73 19.79 19.79 0 0 1-.43 5 9.75 9.75 0 0 1-2.07 4.31 7.32 7.32 0 0 1-4.55 2.44 9.41 9.41 0 0 1-4-.29H77v6.48l-6.47 1.07V29.71zM77 40.33v4.32c0 .6 0 .6.58.77a2.66 2.66 0 0 0 3.3-1.15 5.83 5.83 0 0 0 .72-1.85 15.17 15.17 0 0 0 .12-5.23 4.71 4.71 0 0 0-.72-2.08 1.8 1.8 0 0 0-1.88-.82 3.76 3.76 0 0 0-2 1.09.46.46 0 0 0-.15.37v4.58M96.13 41.93a4 4 0 0 0 1.32 2.93 3.8 3.8 0 0 0 2.36.71 11.53 11.53 0 0 0 5.69-1.27h.11c.08.48.16.95.23 1.42.15.94.29 1.89.45 2.83a.26.26 0 0 1-.15.31 10.47 10.47 0 0 1-3.3 1.24 15.25 15.25 0 0 1-6.45.06 7.74 7.74 0 0 1-6.14-5.85 16.43 16.43 0 0 1-.48-5.75 12.06 12.06 0 0 1 1.1-4.39 7.94 7.94 0 0 1 6.43-4.77 9.4 9.4 0 0 1 4.29.36 7 7 0 0 1 4.26 4 11.58 11.58 0 0 1 1 4.22c.07 1.27 0 2.55 0 3.82v.14H96.13zm4.71-4a9.74 9.74 0 0 0-.33-2.41 3 3 0 0 0-.8-1.41 1.89 1.89 0 0 0-2.85.54 7.59 7.59 0 0 0-.78 3.27h4.76zM19.29 43.78A15.28 15.28 0 0 0 23 45.26a8.47 8.47 0 0 0 2.71.35 3.22 3.22 0 0 0 .87-.18 1.23 1.23 0 0 0 .42-2.16 6.35 6.35 0 0 0-1.82-1c-1-.42-2-.82-3-1.27a6.44 6.44 0 0 1-1.94-1.39 5.07 5.07 0 0 1-1.42-3.17 6.62 6.62 0 0 1 .69-3.89 6 6 0 0 1 3.65-2.83 10.82 10.82 0 0 1 3.9-.4 15.29 15.29 0 0 1 5.32 1.24.3.3 0 0 1 .21.4c-.25 1.46-.48 2.93-.72 4.4v.13c-.56-.23-1.1-.47-1.66-.68a10.12 10.12 0 0 0-3.83-.72 2.62 2.62 0 0 0-.91.19 1 1 0 0 0-.47 1.6 2.7 2.7 0 0 0 1.12.8c.85.36 1.72.69 2.59 1a11.19 11.19 0 0 1 2.73 1.49 5.24 5.24 0 0 1 2.07 4.09 7.23 7.23 0 0 1-.6 3.5 5.86 5.86 0 0 1-3.61 3.08 11.36 11.36 0 0 1-4.3.56 16.21 16.21 0 0 1-5.89-1.4c-.62-.28-.63-.29-.52-.94l.66-4.12v-.14M42.93 23.87v5.82h4.14l-.79 4.83h-3.35V42.91a4.8 4.8 0 0 0 .14 1.09 1.37 1.37 0 0 0 1.27 1.08 6.36 6.36 0 0 0 2.11-.21h.17V49.76a.19.19 0 0 1-.15.24 12.09 12.09 0 0 1-6 .12 4.7 4.7 0 0 1-3.72-4 11.5 11.5 0 0 1-.19-2.12v-9.48h-2.68l.73-4.52c.59-.1 1.17-.2 1.75-.28a.24.24 0 0 0 .24-.24c.24-1.48.49-3 .72-4.45a.33.33 0 0 1 .36-.32l5.25-.86M59.91 35.56a8 8 0 0 0-2.69.1 3.47 3.47 0 0 0-1.78 1 .61.61 0 0 0-.19.45V50h-6.46V29.69h5.41a.24.24 0 0 1 .29.25c.09.68.22 1.36.33 2.07l.08-.11a3.77 3.77 0 0 1 3.53-2.46 10.11 10.11 0 0 1 1.33.1.16.16 0 0 1 .17.19v5.83M61.5 29.71h6.49V50H61.5zM61.34 24.27a3.41 3.41 0 1 1 3.4 3.44 3.39 3.39 0 0 1-3.4-3.44"/></svg>