<?xml version="1.0" encoding="utf-8"?><svg id="bkLayer_1" data-name="Layer 1" xmlns="http://www.w3.org/2000/svg" viewBox="0 0 125.43 78.39" width="32" height="20"><defs><style>.bkcls-1{fill:#13457c}.bkcls-2{fill:#007cc3}.bkcls-3{fill:#009ddd}.bkcls-4{fill:#fff}</style></defs><title>payment-icons</title><rect class="bkcls-1" width="125.43" height="78.39" rx="4.18" ry="4.18"/><path class="bkcls-2" d="M70.1 39.2a22.47 22.47 0 1 1-22.47-22.47A22.47 22.47 0 0 1 70.1 39.2"/><path class="bkcls-3" d="M77.8 16.73a22.39 22.39 0 0 0-15.08 5.82 23.15 23.15 0 0 0-2.27 2.38H65a22.41 22.41 0 0 1 1.7 2.37h-8a21.79 21.79 0 0 0-1.3 2.38H68a22.13 22.13 0 0 1 1 2.38H56.49a21.75 21.75 0 0 0-.65 2.38h13.75a22.6 22.6 0 0 1-.65 11.9H56.49a22.38 22.38 0 0 0 1 2.38H68a22.11 22.11 0 0 1-1.29 2.38h-8a22.31 22.31 0 0 0 1.71 2.38H65a22.3 22.3 0 0 1-2.27 2.38A22.47 22.47 0 1 0 77.8 16.73"/><path class="bkcls-3" d="M97.27 51.72a.73.73 0 1 1 .72.72.73.73 0 0 1-.72-.72m.73.55a.55.55 0 1 0-.55-.55.55.55 0 0 0 .55.55m-.1-.27h-.15v-.6H98.16l.08.16-.11.17.14.27h-.17l-.1-.21h-.1V52zm0-.36h.17v-.13h-.17v.16z"/><path class="bkcls-4" d="M89.73 44.22a.73.73 0 1 1 .72.72.73.73 0 0 1-.72-.72m.72.55a.55.55 0 1 0-.55-.55.55.55 0 0 0 .55.55m-.1-.23h-.14v-.65H90.64l.08.16-.11.17.12.28h-.17l-.1-.25h-.1v.25zm0-.36h.17v-.14h-.16v.16zM47 33.35c-.2.88-.31 1.38-.58 2.45-1.69-.72-4-1.09-5.7 0a4.6 4.6 0 0 0-2.07 4.48 2.75 2.75 0 0 0 1.69 2.08 5.68 5.68 0 0 0 4.8-.49c-.24 1.09-.42 1.94-.63 2.72a9.85 9.85 0 0 1-6 .08 5 5 0 0 1-3.4-4 6.68 6.68 0 0 1 3.69-7 12.4 12.4 0 0 1 8.2-.32M75.67 43.39a4.71 4.71 0 0 1-3.91 1.71c-2.25 0-3.67-1.66-2.87-5.38l.93-4.38h3.43l-.93 4.38c-.32 1.49-.24 2.63 1.27 2.63 1.78 0 2.32-1.08 2.65-2.62l.93-4.38h3.43l-1.54 7c-.17.82-.34 1.7-.44 2.56H75.4l.27-1.55M81.73 38.38c0 1.22.8 2 2.62 2.67 1.4.49 1.62.63 1.62 1.06 0 .61-.63.86-2 .86a12.66 12.66 0 0 1-3.09-.37s-.44 2-.48 2.22a25.33 25.33 0 0 0 3.59.27c3.63 0 5.31-1 5.31-3.21 0-1.31-.71-2.08-2.43-2.67-1.45-.48-1.61-.59-1.61-1s.61-.81 1.74-.81c.67 0 1.61.06 2.49.15l.48-2.23c-.89-.11-2.25-.19-3-.19-3.85 0-5.19 1.49-5.18 3.25M48.5 35.34h3.43l-2.04 9.6h-3.44l2.05-9.6zM68.84 35.3a3.91 3.91 0 0 0-3.93 1.53 6.85 6.85 0 0 0 .2-1.48H62c-.45 3-1.26 6-1.89 9l-.16.65h3.58c.43-2 .92-4.89 1.49-5.79A2.31 2.31 0 0 1 67.74 38zM61 35.3a3.91 3.91 0 0 0-3.93 1.53 6.85 6.85 0 0 0 .2-1.48h-3.13c-.45 3-1.26 6-1.89 9l-.16.65h3.58c.43-2 .92-4.89 1.49-5.79A2.31 2.31 0 0 1 59.92 38z"/></svg>