<?xml version="1.0" encoding="utf-8"?><svg id="clLayer_1" data-name="Layer 1" xmlns="http://www.w3.org/2000/svg" viewBox="0 0 125.43 78.39" width="32" height="20"><defs><style>.clcls-1{fill:#fff}.clcls-2{fill:#c5c7c9}.clcls-3{fill:#231f20}.clcls-4{fill:#a6a8ab}.clcls-5{fill:#ffc10e}.clcls-6{fill:#a30046}</style></defs><title>payment-icons</title><path class="clcls-1" d="M34.54 22.58a13.82 13.82 0 0 0 0 27.64h57.61a13.82 13.82 0 0 0 0-27.64H34.54z"/><path class="clcls-2" d="M92.15 51.39H34.54a15 15 0 1 1 0-30h57.61a15 15 0 0 1 0 30M34.54 22.58a13.82 13.82 0 0 0 0 27.64h57.61a13.82 13.82 0 0 0 0-27.64H34.54z"/><path class="clcls-3" d="M85.24 28a4 4 0 1 0 4.05 4.05A4.05 4.05 0 0 0 85.24 28m0 6.13a2.08 2.08 0 1 1 2.08-2.08 2.08 2.08 0 0 1-2.08 2.08M66.66 28a4 4 0 1 0 4.05 4.05A4.05 4.05 0 0 0 66.66 28m0 6.13a2.08 2.08 0 1 1 2.08-2.08 2.08 2.08 0 0 1-2.08 2.08"/><path class="clcls-3" d="M80.92 34.24a4 4 0 0 1-.8.15c-.69 0-.84-.24-.84-.9v-3.74h1.66v-1.56h-1.66V26h-1.86L77 28.19h-1.4a2.67 2.67 0 0 0-2.37 1.67l-.63-1.67h-1.33V36h2.28v-3.42c0-1.7 1-2.79 2.2-2.83H77v3.86a2.17 2.17 0 0 0 2.45 2.49 5.5 5.5 0 0 0 1.74-.28zM92.05 30.64v5.32h-2.22v-7.78h1.35l.45 1.19"/><path class="clcls-3" d="M91.62 29.38A3.59 3.59 0 0 1 94.3 28a2.6 2.6 0 0 1 2.61 2.84V36h-2.29v-5a1.06 1.06 0 0 0-1.16-1 1.89 1.89 0 0 0-1.41.76M53.7 25.37h2.55l3.49 6.66v-6.66h2.11v10.59h-2.3l-3.74-7.32v7.32H53.7V25.37z"/><path class="clcls-4" d="M103.65 21.4v.38h-.55v1.86h-.43v-1.86h-.55v-.38h1.53zM103.97 23.64V21.4h.58l.39 1.47.39-1.47h.6v2.24h-.36v-1.75h-.01l-.45 1.75h-.32l-.46-1.75h-.01v1.75h-.35zM53.07 45.34l.53-.82a3.14 3.14 0 0 0 1.86.61 1 1 0 0 0 1.24-.95c0-.69-.6-.87-1.57-1.21a2.07 2.07 0 0 1-1.74-2 1.87 1.87 0 0 1 2.15-1.8 3.65 3.65 0 0 1 1.91.45l-.45.88a3.15 3.15 0 0 0-1.47-.36.88.88 0 0 0-1.1.81c0 .64.48.8 1.38 1.1s2 .74 2 2.11c0 1.16-.83 1.93-2.33 1.93a3.9 3.9 0 0 1-2.4-.76M59.8 39.28h4v.93h-2.86v1.84h2.26v.91h-2.26v2.12h3.04v.93H59.8v-6.73zM65.61 42.65c0-2 .94-3.47 2.82-3.47a2.46 2.46 0 0 1 2 .81l-.66.77a1.68 1.68 0 0 0-1.29-.59c-1.1 0-1.61.9-1.61 2.57s.54 2.35 1.62 2.35a1.88 1.88 0 0 0 1.4-.71l.67.75a2.53 2.53 0 0 1-2.07 1c-1.93 0-2.83-1.47-2.83-3.45M72.37 43.43v-4.15h1.15v4.34c0 .92.23 1.53 1.21 1.53s1.21-.61 1.21-1.53v-4.34h1.16v4.15c0 1.67-.64 2.66-2.37 2.66s-2.34-1-2.34-2.66M84.11 46h-1.25l-1.29-2.85h-1.06V46h-1.14v-6.72h2.19c1.36 0 2.42.49 2.42 2A1.75 1.75 0 0 1 82.71 43zm-2.58-3.73c.85 0 1.29-.28 1.29-1.05a1 1 0 0 0-1.22-1h-1.09v2.07h1zM86.05 39.28h4v.93h-2.86v1.84h2.26v.91h-2.26v2.12h3.03v.93h-4.17v-6.73zM92.15 39.28h1.68c2.19 0 3.25 1.19 3.25 3.34S96 46 93.88 46h-1.73v-6.72zm1.61 5.8c1.57 0 2.11-.72 2.11-2.46 0-1.52-.42-2.41-2-2.41h-.58v4.87h.47z"/><path class="clcls-5" d="M34.47 52.58A16.18 16.18 0 1 1 50.65 36.4a16.2 16.2 0 0 1-16.18 16.18m0-27.24a11.06 11.06 0 1 0 7.82 3.24 11 11 0 0 0-7.82-3.24M52.1 17.72h1.26v1.26H52.1zM52.1 15.21h1.26v1.26H52.1zM48.55 18.97h1.18v1.23h-1.18z"/><path class="clcls-3" d="M46.21 21.39h1.19v1.18h-1.19zM49.73 20.21h1.32v1.19h-1.32zM45.03 20.26h1.18v1.13h-1.18zM48.55 21.39h1.18v1.18h-1.18zM50.85 16.47h1.25v1.25h-1.25zM48.55 17.72h2.3v1.25h-2.3zM47.4 18.97h1.15v2.42H47.4z"/><path class="clcls-3" d="M47.4 22.57v1.19h-1.19v-1.19h-2v.85h-1.03v1.06h1.18v1.18h-1.18v-1.18h-1.25v1.84h-1.19v1.18H40v1.18h-.91a66.22 66.22 0 0 0-4.14 7.79c-2.66-3.69-4.72-5.16-6.34-5.69-.87-.26-1.93.69-.48 2.19a27.09 27.09 0 0 1 5.41 9.14c.54 1.28 2.95 1.48 3.43.18a39.42 39.42 0 0 1 4.28-8.39v-1.31h.94V31.4h1V30h1.18v-1.3h-1.2v-1.2h1.2v1.2h1.17v-1.2h.94v-1.44h1.06v-1h1v-2.5H47.4z"/><path class="clcls-4" d="M24.57 58.13h.89v.65a1.54 1.54 0 0 1 1.31-.78 1.85 1.85 0 0 1 1.8 2 1.85 1.85 0 0 1-1.8 2 1.58 1.58 0 0 1-1.31-.68v1.77h-.89v-5zm3.1 1.94a1.15 1.15 0 0 0-1.11-1.24 1.17 1.17 0 0 0-1.13 1.24 1.16 1.16 0 0 0 1.13 1.24 1.13 1.13 0 0 0 1.11-1.24M29.29 60.08a2.06 2.06 0 0 1 4.12 0 2 2 0 0 1-2.07 2 2 2 0 0 1-2.05-2m3.24 0a1.19 1.19 0 0 0-1.19-1.24 1.16 1.16 0 0 0-1.17 1.23 1.2 1.2 0 0 0 1.18 1.24 1.17 1.17 0 0 0 1.17-1.23M33.84 58.13h.91l.78 2.65.85-2.67h.76l.86 2.67.79-2.65h.89l-1.27 3.89h-.79l-.86-2.64-.88 2.64h-.79l-1.25-3.89zM40.13 60.07A1.92 1.92 0 0 1 42 58a1.87 1.87 0 0 1 1.85 2.08v.25H41a1.08 1.08 0 0 0 1.11 1 1.4 1.4 0 0 0 1-.46l.52.46a2 2 0 0 1-1.58.72 1.93 1.93 0 0 1-2-2m2.95-.26a1 1 0 0 0-1-1 1 1 0 0 0-1 1h2zM44.8 58.13h.89V59a1.37 1.37 0 0 1 1.37-.94V59H47a1.31 1.31 0 0 0-1.32 1.53V62h-.88v-3.87zM47.57 60.07a1.92 1.92 0 0 1 1.89-2 1.87 1.87 0 0 1 1.85 2.08v.25h-2.86a1.08 1.08 0 0 0 1.11 1 1.4 1.4 0 0 0 1-.46l.52.46a2 2 0 0 1-1.58.72 1.93 1.93 0 0 1-2-2m2.86-.29a1 1 0 0 0-1-1 1 1 0 0 0-1 1h2zM52 60.07a1.85 1.85 0 0 1 1.79-2 1.6 1.6 0 0 1 1.32.68v-2.1H56V62h-.86v-.65a1.55 1.55 0 0 1-1.32.72 1.85 1.85 0 0 1-1.79-2m3.13 0A1.16 1.16 0 0 0 54 58.81a1.13 1.13 0 0 0-1.11 1.24A1.15 1.15 0 0 0 54 61.3a1.16 1.16 0 0 0 1.12-1.24M60.21 61.39V62h-.89v-5.35h.89v2.12a1.54 1.54 0 0 1 1.31-.77 1.86 1.86 0 0 1 1.8 2 1.85 1.85 0 0 1-1.8 2 1.57 1.57 0 0 1-1.31-.68M62.42 60a1.15 1.15 0 0 0-1.11-1.24A1.17 1.17 0 0 0 60.18 60a1.16 1.16 0 0 0 1.13 1.24A1.13 1.13 0 0 0 62.42 60M63.93 63l.3-.66a1.08 1.08 0 0 0 .52.15.56.56 0 0 0 .54-.49l-1.61-3.87h.94L65.73 61l1-2.87h.92l-1.54 4a1.29 1.29 0 0 1-1.27 1.08 1.8 1.8 0 0 1-.91-.21"/><path class="clcls-6" d="M70.27 56.87h1l1.54 3.93 1.54-3.93h.97l-2.13 5.16h-.79l-2.13-5.16zM75.5 60.07a1.92 1.92 0 0 1 1.89-2 1.87 1.87 0 0 1 1.85 2.08v.25h-2.85a1.08 1.08 0 0 0 1.11 1 1.4 1.4 0 0 0 1-.46l.52.46a2 2 0 0 1-1.58.72 1.93 1.93 0 0 1-2-2m2.86-.29a1 1 0 0 0-1-1 1 1 0 0 0-1 1h2zM80.17 58.13h.89V59a1.37 1.37 0 0 1 1.37-.94V59h-.06a1.31 1.31 0 0 0-1.32 1.53V62h-.88v-3.87zM83.15 56.69h1v.84h-1v-.84zm0 1.43h.89V62h-.86v-3.87zM85 61.25l.54-.65a2.36 2.36 0 0 0 1.62.67.76.76 0 0 0 .91-.64c0-.36-.21-.56-1.16-.78s-1.71-.58-1.71-1.53a1.57 1.57 0 0 1 1.75-1.49 2.84 2.84 0 0 1 1.86.64l-.48.68a2.33 2.33 0 0 0-1.39-.53.71.71 0 0 0-.83.61c0 .4.23.57 1.22.81s1.67.63 1.67 1.48a1.59 1.59 0 0 1-1.83 1.53 3.16 3.16 0 0 1-2.17-.8M89.93 56.69h1v.84h-1v-.84zm0 1.43h.89V62H90v-3.87zM92 62.72l.33-.66a2.52 2.52 0 0 0 1.38.41 1.08 1.08 0 0 0 1.22-1.19V61a1.62 1.62 0 0 1-1.36.71 1.74 1.74 0 0 1-1.76-1.81 1.74 1.74 0 0 1 1.73-1.9 1.67 1.67 0 0 1 1.35.66v-.53h.89v3.07a2 2 0 0 1-.49 1.46 2.17 2.17 0 0 1-1.59.52 3.34 3.34 0 0 1-1.7-.46m2.94-2.84a1.08 1.08 0 0 0-1.14-1.07 1 1 0 0 0-1.1 1.06 1.05 1.05 0 0 0 1.1 1.07 1.08 1.08 0 0 0 1.14-1.06M96.92 58.13h.88v.6A1.39 1.39 0 0 1 99 58a1.33 1.33 0 0 1 1.38 1.49V62h-.88v-2.2a.81.81 0 0 0-.83-.94.86.86 0 0 0-.87 1V62h-.88v-3.87z"/></svg>