<?xml version="1.0" encoding="utf-8"?><svg id="bsLayer_1" data-name="Layer 1" xmlns="http://www.w3.org/2000/svg" viewBox="0 0 125.43 78.39" width="32" height="20"><defs><style>.bscls-1{fill:#1c3663}.bscls-2{fill:#fff}</style></defs><title>payment-icons</title><rect class="bscls-1" width="125.43" height="78.39" rx="4.18" ry="4.18"/><path class="bscls-2" d="M60.63 34.44a1.79 1.79 0 0 0-1.31.8L56 40.88c-.16.28-.32.1-.35 0l-.93-5.61a1.15 1.15 0 0 0-1.14-.82h-1.82a.62.62 0 0 0-.63.8s1.42 8.08 1.7 10a2.08 2.08 0 0 1 0 1.24L51 49.7c-.27.44-.12.8.32.8h2.16a1.76 1.76 0 0 0 1.31-.79l8.32-14.07s.79-1.2.06-1.19h-2.54M34.38 37.3a4.39 4.39 0 0 1-2.64.69h-.51a.63.63 0 0 1-.64-.8l.63-2.71a1.06 1.06 0 0 1 1-.79h.68a3.3 3.3 0 0 1 1.81.41 1.37 1.37 0 0 1 .6 1.24 2.25 2.25 0 0 1-.94 2m4.51-4.17a3.12 3.12 0 0 0-1.15-1.23 5.26 5.26 0 0 0-1.81-.67 15.19 15.19 0 0 0-2.46-.2h-4.35a1.09 1.09 0 0 0-1 .79l-2.94 12.75a.62.62 0 0 0 .63.8h2.09a1.07 1.07 0 0 0 1-.8l.72-3.1a1.07 1.07 0 0 1 1-.79h.6a9.91 9.91 0 0 0 6-1.57A4.88 4.88 0 0 0 39.28 35a3.87 3.87 0 0 0-.4-1.88M49 35a8 8 0 0 0-3.73-.67 16.5 16.5 0 0 0-2.53.2c-.62.1-.68.11-1.07.2a1.22 1.22 0 0 0-.92 1l-.25 1c-.14.67.24.64.41.59a11.48 11.48 0 0 1 1.24-.37 9.15 9.15 0 0 1 2-.26 5.18 5.18 0 0 1 1.89.27 1 1 0 0 1 .63.95.69.69 0 0 1 0 .29.32.32 0 0 1-.3.19c-1.19.07-2 .18-3.08.33a9.62 9.62 0 0 0-2.65.73 4.11 4.11 0 0 0-1.79 1.42 3.84 3.84 0 0 0-.6 2.18A2.56 2.56 0 0 0 39 45a3.19 3.19 0 0 0 2.2.76 5.88 5.88 0 0 0 1.31-.12 6.54 6.54 0 0 0 1-.34 5.23 5.23 0 0 0 .86-.48l.79-.52-.08.34a.61.61 0 0 0 .55.78h2a1.09 1.09 0 0 0 .89-.78L50 38.05a7.08 7.08 0 0 0 .11-1A2.2 2.2 0 0 0 49 35m-3.69 7.84a5.43 5.43 0 0 1-.82.42 3 3 0 0 1-1.09.24 2.43 2.43 0 0 1-1.19-.23.81.81 0 0 1-.41-.78 1.59 1.59 0 0 1 .3-1 2.18 2.18 0 0 1 .89-.6 7.75 7.75 0 0 1 1.38-.31c.48-.06 1.42-.17 1.54-.17s.2-.07.15.25c0 .14-.3 1.26-.42 1.76a1 1 0 0 1-.33.43M86.87 35a8 8 0 0 0-3.73-.67 16.38 16.38 0 0 0-2.53.2c-.62.09-.69.11-1.07.19a1.22 1.22 0 0 0-.92 1l-.26 1c-.14.67.24.64.41.59a10.69 10.69 0 0 1 1.23-.38 9.22 9.22 0 0 1 2-.26 5.18 5.18 0 0 1 1.89.27 1 1 0 0 1 .63.95.73.73 0 0 1 0 .3.33.33 0 0 1-.3.19c-1.19.07-2.05.18-3.08.33a9.63 9.63 0 0 0-2.65.73 4.13 4.13 0 0 0-1.8 1.42A3.86 3.86 0 0 0 76 43a2.56 2.56 0 0 0 .85 2 3.19 3.19 0 0 0 2.2.76 5.89 5.89 0 0 0 1.31-.12 6.67 6.67 0 0 0 1-.34 5.29 5.29 0 0 0 .86-.48l.79-.53-.01.35a.62.62 0 0 0 .56.78h2a1.09 1.09 0 0 0 .9-.78l1.52-6.58a3.5 3.5 0 0 0 .02-.53 4.37 4.37 0 0 0 0-.5A2.2 2.2 0 0 0 86.87 35m-3.7 7.8a5.61 5.61 0 0 1-.82.42 3 3 0 0 1-1.09.24 2.43 2.43 0 0 1-1.19-.23.8.8 0 0 1-.41-.78 1.58 1.58 0 0 1 .3-1 2.16 2.16 0 0 1 .89-.6 7.56 7.56 0 0 1 1.38-.31c.48-.06 1.42-.17 1.54-.17s.2-.07.15.25c0 .14-.3 1.26-.42 1.76a1 1 0 0 1-.33.43M72.29 37.35a4.42 4.42 0 0 1-2.63.68h-.52a.62.62 0 0 1-.63-.8l.63-2.71a1.07 1.07 0 0 1 1-.79h.69a3.4 3.4 0 0 1 1.81.4 1.4 1.4 0 0 1 .61 1.25 2.3 2.3 0 0 1-.94 2m4.51-4.18a3.2 3.2 0 0 0-1.15-1.23 5.17 5.17 0 0 0-1.82-.67 14.39 14.39 0 0 0-2.45-.19H67a1.09 1.09 0 0 0-1 .8l-2.92 12.75a.62.62 0 0 0 .62.8h2.1a1.09 1.09 0 0 0 1-.79l.71-3.1a1.07 1.07 0 0 1 1-.79h.6a9.87 9.87 0 0 0 6-1.57 4.92 4.92 0 0 0 2.13-4.14 4 4 0 0 0-.4-1.88M94.07 31.19H92.2a1.07 1.07 0 0 0-1 .72v.07l-.1.47-2.59 11.69c-.06.28-.1.46-.12.5a.61.61 0 0 0 .55.77h1.96a1.08 1.08 0 0 0 1-.73v-.07L94.7 32a.62.62 0 0 0-.63-.79M96.9 33.76H96.49a.64.64 0 0 1-.49-.1.76.76 0 0 1-.16-.54V32h-.21v-.25h.23v-.58h.34v.58h.7V32h-.7v1.25l.05.17.11.11a.54.54 0 0 0 .22 0h.31v.31zM100.28 33.78h-.34v-1.41l-.05-.19-.12-.12a.5.5 0 0 0-.22 0 .63.63 0 0 0-.29.07 1.67 1.67 0 0 0-.29.18v1.51h-.34v-1.64l-.12-.12a.54.54 0 0 0-.23 0 .62.62 0 0 0-.28.07 1.64 1.64 0 0 0-.28.17v1.52h-.4v-2h.34V32a1.57 1.57 0 0 1 .34-.23.78.78 0 0 1 .34-.07.67.67 0 0 1 .35.09.54.54 0 0 1 .22.24 1.66 1.66 0 0 1 .38-.25.89.89 0 0 1 .37-.08.59.59 0 0 1 .49.2.89.89 0 0 1 .16.57v1.32z"/></svg>