<?xml version="1.0" encoding="utf-8"?><svg id="bjLayer_1" data-name="Layer 1" xmlns="http://www.w3.org/2000/svg" viewBox="0 0 125.43 78.39" width="32" height="20"><defs><style>.bjcls-1{fill:#fff}</style></defs><title>payment-icons</title><rect width="125.43" height="78.39" rx="4.18" ry="4.18"/><path class="bjcls-1" d="M14.64 33.84h-1.33v-1.72h5.75a4.85 4.85 0 0 1 2.19.48 2.8 2.8 0 0 1 1.64 2.61 2.58 2.58 0 0 1-1.54 2.55h-.07a11.34 11.34 0 0 1 1.32.79 2.94 2.94 0 0 1-.31 4.58 4.94 4.94 0 0 1-2.72.8H13.3v-1.68h1.33v-8.4zm1.94 8.4h2a9.56 9.56 0 0 0 1.75-.2 1.55 1.55 0 0 0 0-3 7.32 7.32 0 0 0-1.56-.21h-2.22v3.48zm0-5.12c1.05-.06 2.08-.05 3.08-.19a1.5 1.5 0 0 0-.05-3c-1-.12-2-.1-3-.15v3.31zM70 44h-4.5v-1.7h1.3a2.83 2.83 0 0 0 0-.32v-3.33a2.81 2.81 0 0 0-.17-.92 1.59 1.59 0 0 0-1.61-1 2.66 2.66 0 0 0-2.71 2.51c-.05 1 0 2 0 3h1.39V44h-4.5v-1.75h1.28V37h-1.2v-1.74h3v1.06a3.27 3.27 0 0 1 1.81-1.21 3.66 3.66 0 0 1 3.88 1 3.15 3.15 0 0 1 .7 2.18v3.96H70V44zM113.62 40.27h-7.53a2.63 2.63 0 0 0 .86 1.51 3.68 3.68 0 0 0 3.85.5 10 10 0 0 0 1.45-.79l1.26 1.13a5.4 5.4 0 0 1-2.78 1.48 5.79 5.79 0 0 1-4.58-.67 4.55 4.55 0 0 1-1.9-4.83 4.48 4.48 0 0 1 3.58-3.52 4.66 4.66 0 0 1 5.8 4.58v.62m-7.42-1.59h5.29a2.56 2.56 0 0 0-2.38-2 2.72 2.72 0 0 0-2.91 2M100.94 41.43l1.27 1.18a2 2 0 0 1-.15.19 6.31 6.31 0 0 1-7.16.64 4.58 4.58 0 0 1-1.9-4.82 4.48 4.48 0 0 1 3.55-3.55 4.66 4.66 0 0 1 5.08 2 5.15 5.15 0 0 1 .74 3.19h-7.56a2.66 2.66 0 0 0 1.59 2 4.17 4.17 0 0 0 4.13-.49c.16-.1.29-.23.41-.33m-6-2.77h5.31a2.61 2.61 0 0 0-2.55-2 2.69 2.69 0 0 0-2.76 2M37 36.42a5.5 5.5 0 0 1 5.9-1 3 3 0 0 1 1.8 2.87v3.97H46V44h-3.16v-.86a3.5 3.5 0 0 1-2 1 4.67 4.67 0 0 1-2.74-.25 2.44 2.44 0 0 1-1.59-2 2.53 2.53 0 0 1 1.18-2.6 5.47 5.47 0 0 1 3.64-.7c.5.05 1 .16 1.49.25.3-1.31-.68-2.29-2.18-2.17a3.83 3.83 0 0 0-2.09.8l-.32.24L37 36.42m5.81 4c-.42-.09-.83-.21-1.25-.26a4.2 4.2 0 0 0-2.52.25 1.16 1.16 0 0 0-.69 1.23 1.08 1.08 0 0 0 .94.91 3.48 3.48 0 0 0 2.78-.55 1.56 1.56 0 0 0 .74-1.59M72.47 32.11h1.83v3.1h4.24V37h-4.22v3.52a1.92 1.92 0 0 0 2.43 2 3.67 3.67 0 0 0 1.72-.82l.39-.33 1.29 1.27a14.53 14.53 0 0 1-1.37 1 4.87 4.87 0 0 1-4.05.38 3.11 3.11 0 0 1-2.23-3v-3.6-.46h-2.28v-1.71h2.26v-3.14zM35.3 37.3l-1.67.48h-.08a1.55 1.55 0 0 0-2-1 3 3 0 0 0-2.39 2.53 4.52 4.52 0 0 0-.06.72v2.23h3V44h-6.75v-1.75h1.87V37h-1.17a.26.26 0 0 1-.33-.32v-1.42H29v1.37a3.77 3.77 0 0 1 4.64-1.38 2.63 2.63 0 0 1 1.66 2.05M85.48 36.62a3.76 3.76 0 0 1 4.2-1.53 2.72 2.72 0 0 1 2 2.21l-1.67.49-.01-.06a1.57 1.57 0 0 0-2.06-1 3 3 0 0 0-2.37 2.71c-.08.9 0 1.81 0 2.76h3V44h-6.8v-1.75h1.88V37h-1.46v-1.75h3.3v1.37zM53.61 35.25v6.99h3.35v1.73h-8.83v-1.72h3.62v-5.26H49v-1.74h4.61zM51.57 30.85h2.01v2.63h-2.01z"/></svg>