<?xml version="1.0" encoding="utf-8"?><svg id="dfLayer_1" data-name="Layer 1" xmlns="http://www.w3.org/2000/svg" viewBox="0 0 125.43 78.39" width="32" height="20"><defs><style>.dfcls-1{fill:#f9f9f9}.dfcls-2{fill:#fff}.dfcls-3{fill:#c5c7c9}.dfcls-4{fill:#231f20}.dfcls-5{fill:#a6a8ab}.dfcls-6{fill:#ffc10e}.dfcls-7{fill:#a30046}</style></defs><title>payment-icons</title><rect class="dfcls-1" width="125.43" height="78.39" rx="4.18" ry="4.18"/><path class="dfcls-2" d="M34.54 21.57a13.82 13.82 0 1 0 .14 27.64h57.29a13.82 13.82 0 0 0 .74-27.63h-58.2z"/><path class="dfcls-3" d="M92.15 50.39H34.8A15 15 0 0 1 20 31.59a15.15 15.15 0 0 1 10.6-10.67 21.23 21.23 0 0 1 5.68-.53h49.3c4.68 0 9.57-.49 13.82 1.88a15 15 0 0 1-7.26 28.12m-57.6-28.82a13.82 13.82 0 1 0 .14 27.64h57.29a13.82 13.82 0 0 0 .74-27.63h-58.2z"/><path class="dfcls-4" d="M85.23 27a4 4 0 1 0 4 4.05 4.09 4.09 0 0 0-4-4.05m0 6.13c-2.68 0-2.68-4.15 0-4.15s2.68 4.15 0 4.15M66.66 27a4 4 0 1 0 4.05 4.05A4.09 4.09 0 0 0 66.66 27m0 6.13C64 33.13 64 29 66.66 29s2.68 4.15 0 4.15"/><path class="dfcls-4" d="M80.92 33.24c-.68.2-1.49.33-1.63-.52a6.76 6.76 0 0 1 0-1.09v-2.88h1.66v-1.56h-1.67V25h-1.86L77 27.19h-1.3a2.73 2.73 0 0 0-2.48 1.67l-.62-1.67h-1.33V35h2.28c0-1.87-.64-6.13 2.2-6.21H77v2.33a8.26 8.26 0 0 0 .17 2.69c.48 1.33 2 1.47 3.18 1.27a2.13 2.13 0 0 0 .84-.21 1.29 1.29 0 0 0-.06-.36 7.17 7.17 0 0 0-.21-1.27zM92.05 29.64v5.32h-2.22v-7.78h1.35l.45 1.19"/><path class="dfcls-4" d="M91.62 28.38c1-1.15 2.79-1.91 4.18-.94a3.08 3.08 0 0 1 1.11 2.64v4.88h-2.29v-3.77a10.35 10.35 0 0 0 0-1.28c-.19-1.49-1.83-1.07-2.57-.27M53.7 24.37h2.54l3.5 6.63v-6.63h2.11V35h-2.3l-3.73-7.32V35A8.92 8.92 0 0 1 54 35c-.47-.1-.22.1-.33-.3a5.65 5.65 0 0 1 0-1.36v-8.97z"/><path class="dfcls-5" d="M103.65 20.4v.38h-.55v1.86h-.43v-1.86h-.54c-.2-.66 1.11-.38 1.52-.38zM104 22.64V20.4h.59l.39 1.47.4-1.47h.59v2.24h-.36v-1.75l-.45 1.76h-.32l-.46-1.76c-.06.42.24 1.95-.38 1.75zM53.07 44.34l.53-.82c.7.52 2.75 1.17 3.07-.12S55 42 54.28 41.59a1.86 1.86 0 0 1-.37-2.88 3.28 3.28 0 0 1 3.54-.09 2.85 2.85 0 0 1-.42.87 12.18 12.18 0 0 1-1.3-.35 1.48 1.48 0 0 0-1 .19c-1.38 1.1 1.41 1.76 1.94 2a2 2 0 0 1 .58 3.11c-1.06 1-3.14.67-4.2-.16M59.8 38.28h4v.93h-2.86V41h2.26v1h-2.26v2.12h3V45h-3c-.88 0-1.14.27-1.14-.61v-6.11zM65.61 41.65a3.54 3.54 0 0 1 1.34-3.07 2.78 2.78 0 0 1 3.44.41l-.66.77a1.68 1.68 0 0 0-2.12-.34 2.77 2.77 0 0 0-.78 2.32 2.54 2.54 0 0 0 .72 2.09 1.76 1.76 0 0 0 2.3-.44 3.19 3.19 0 0 1 .46.51c.18.34.27.1 0 .51a2.59 2.59 0 0 1-2.34.66c-1.67-.27-2.31-1.88-2.31-3.41M72.37 42.43v-4.15h1.15v3.21c0 1-.24 2.66 1.2 2.65s1.21-1.64 1.21-2.65v-3.21h1.16a39.09 39.09 0 0 1 0 4.77 2.18 2.18 0 0 1-2.48 2C73 45 72.37 43.9 72.37 42.43M84.1 45h-1.24l-1.29-2.85h-1.06V45h-1.14v-6.72a12.11 12.11 0 0 1 3.25.13 1.88 1.88 0 0 1 .09 3.59zm-2.58-3.73c.93 0 1.92-1 1-1.84a3.4 3.4 0 0 0-2-.23 9 9 0 0 0 0 1.74c.07.34-.08.19.16.32a2.71 2.71 0 0 0 .84.02zM86.05 38.28h4v.93h-2.86V41h2.26v1h-2.26v2.12h3V45h-3c-.88 0-1.14.27-1.14-.61v-6.11zM92.15 38.28c1.81 0 4-.19 4.73 1.91a4.4 4.4 0 0 1-.41 3.71 3.21 3.21 0 0 1-2.74 1.1c-.4 0-1.42.16-1.59-.12a6.24 6.24 0 0 1 0-2.08v-4.52zm1.61 5.8c1.5 0 2.07-.91 2.1-2.32s-.4-2.55-2-2.55h-.57V42a10.76 10.76 0 0 0 0 1.64c.07.47-.09.46.47.44z"/><path class="dfcls-6" d="M34.47 51.58a16.18 16.18 0 1 1 15.87-13 16.35 16.35 0 0 1-15.87 13m0-27.24a11.06 11.06 0 1 0 10.85 8.89 11.17 11.17 0 0 0-10.85-8.89M53.36 16.72H52.1V18a3.93 3.93 0 0 0 1.26 0 3.85 3.85 0 0 0 0-1.28zM53.36 14.21H52.1v1.26a3.93 3.93 0 0 0 1.26 0 3.86 3.86 0 0 0 0-1.26zM49.73 18h-1.18v1.23a3.33 3.33 0 0 0 1.18 0 3.86 3.86 0 0 0 0-1.23z"/><path class="dfcls-4" d="M47.4 20.39h-1.19v1.18a3.81 3.81 0 0 0 1.19 0 3.55 3.55 0 0 0 0-1.18zM51 19.21h-1.27v1.19a4 4 0 0 0 1.3 0 3.48 3.48 0 0 0-.03-1.19zM45 20.39h1.18v-1.13a3.68 3.68 0 0 0-1.18 0 3.52 3.52 0 0 0 0 1.13z"/><path class="dfcls-4" d="M49.73 20.39h-1.18v1.18a3.77 3.77 0 0 0 1.18 0 3.56 3.56 0 0 0 0-1.18zM52.1 15.47h-1.25v1.25a3.89 3.89 0 0 0 1.25 0 3.82 3.82 0 0 0 0-1.25zM50.85 16.72h-2.3V18a8.8 8.8 0 0 0 2 0c.4-.1.16.12.29-.27a3.6 3.6 0 0 0 .01-1.01zM47.4 20.39h1.15V18a2.94 2.94 0 0 0-1 0c-.22.12-.1.06-.14.41a15.86 15.86 0 0 0-.01 1.98zM47.4 21.57v1.19h-1.19v-1.19h-2v.86h-1.03v1.05h1.18v1.18h-1.18v-1.18h-1.25v1.84h-1.19v1.18H40v1.18a1 1 0 0 0-1.26.62c-.46.76-.9 1.53-1.33 2.31a45.27 45.27 0 0 0-2.43 4.86c-1.44-2-3.15-4.14-5.39-5.29-.6-.31-1.64-.81-2.06 0-.56 1.11 1.47 2.69 2.06 3.45a29.27 29.27 0 0 1 3.75 6.86 2.19 2.19 0 0 0 2.08 1.65c1.45 0 1.68-1.16 2.14-2.29A40.59 40.59 0 0 1 40 34.82a9.8 9.8 0 0 0 1.22-2 5.62 5.62 0 0 0 0-1.23h.94V30.4h1V29h1.18v-1.3h-1.2v-1.2h1.2v1.2h1.17v-1.2h.94v-1.44h1.06v-1h1a16.62 16.62 0 0 0 0-2.07c0-.34.08-.31-.14-.43a2.94 2.94 0 0 0-.97.01z"/><path class="dfcls-5" d="M24.57 57.13h.89v.64c1.1-1.56 3.11-.35 3.11 1.29s-2 2.84-3.11 1.33v1.77a.89.89 0 0 1-.89-.16 5.3 5.3 0 0 1 0-1.68v-3.19zm3.1 1.94a1.12 1.12 0 1 0-2.23 0 1.12 1.12 0 1 0 2.23 0M29.29 59.08c0-2.62 4.12-2.65 4.12 0s-4.12 2.65-4.12 0m3.24 0a1.18 1.18 0 1 0-2.35 0 1.18 1.18 0 1 0 2.35 0M33.84 57.13h.91l.78 2.65.86-2.67h.75l.86 2.67.79-2.65h.89L38.41 61h-.79l-.86-2.64-.88 2.64a1.27 1.27 0 0 1-.82-.1 4.14 4.14 0 0 1-.41-1.29zM40.13 59.07a1.88 1.88 0 1 1 3.73.3H41a1.23 1.23 0 0 0 2.16.52l.52.46a2 2 0 0 1-3.57-1.28m2.89-.28a1 1 0 0 0-2 0h2zM44.8 57.13h.89V58a1.41 1.41 0 0 1 1.37-.94V58c-1.63 0-1.37 1.89-1.37 3a1.87 1.87 0 0 1-.89-.05 3.74 3.74 0 0 1 0-1.19v-2.63zM47.57 59.07a1.88 1.88 0 1 1 3.73.3h-2.85a1.23 1.23 0 0 0 2.16.52l.52.46a2 2 0 0 1-3.57-1.28m2.86-.29a1 1 0 0 0-2 0h2zM52 59.07c0-1.64 2-2.84 3.11-1.34v-2.08H56V61h-.86v-.65C54 61.9 52 60.7 52 59.07m3.13 0a1.12 1.12 0 1 0-2.23 0 1.12 1.12 0 1 0 2.23 0M60.21 60.39V61h-.89v-5.35h.89v2.12c1.1-1.56 3.11-.35 3.11 1.29s-2 2.84-3.11 1.33m2.21-1.33a1.12 1.12 0 1 0-2.23 0 1.12 1.12 0 1 0 2.23 0M63.92 62a1.9 1.9 0 0 1 .3-.66 4.69 4.69 0 0 0 .69.12.71.71 0 0 0 .38-.46l-1.61-3.87h.94L65.73 60l1-2.87h.92l-1.18 3.05c-.45 1.16-1 2.61-2.55 1.77"/><path class="dfcls-7" d="M70.27 55.87h1l1.55 3.94 1.54-3.94h1L73.19 61c-.56 0-.65.11-.91-.29a10.34 10.34 0 0 1-.72-1.71zM75.5 59.07a1.88 1.88 0 1 1 3.73.3h-2.84a1.23 1.23 0 0 0 2.16.52l.52.46a2 2 0 0 1-3.57-1.28m2.86-.29a1 1 0 0 0-2 0h2zM80.17 57.13h.89V58a1.41 1.41 0 0 1 1.37-.94V58c-1.63 0-1.37 1.89-1.37 3a1.87 1.87 0 0 1-.89-.05 3.74 3.74 0 0 1 0-1.19v-2.63zM83.15 55.69h1v.84c-1.02 0-1 .14-1-.84zm0 1.43h.89V61a1.87 1.87 0 0 1-.89-.05 3.74 3.74 0 0 1 0-1.19v-2.64zM85 60.25a2.13 2.13 0 0 1 .38-.45c.37-.21.29 0 .79.24s1.9.51 1.9-.41c0-1.19-2.74-.6-2.86-2.21-.14-2 2.51-1.85 3.6-1a2.43 2.43 0 0 1-.29.41c-.33.29-.07.28-.61 0s-1.81-.55-1.81.34c-.06 1.21 2.84.61 2.86 2.32 0 2.12-2.92 1.66-4 .72M89.94 55.69h1v.84c-1.02 0-1 .14-1-.84zm0 1.43h.89V61a1.87 1.87 0 0 1-.83-.06 3.74 3.74 0 0 1 0-1.19v-2.63zM92 61.72l.33-.66c1.2.74 2.63.48 2.6-1.08a1.74 1.74 0 0 1-3.12-1.11 1.76 1.76 0 0 1 3.11-1.16v-.58h.89v2.94a2 2 0 0 1-.68 1.75 3.09 3.09 0 0 1-3.13-.1m2.94-2.84a1.12 1.12 0 0 0-2.23 0 1.12 1.12 0 0 0 2.23 0M96.92 57.13h.88v.6c.91-1.32 2.51-.56 2.59.85v2.41h-.89c0-.79.4-3.14-.83-3.14s-.87 2.34-.87 3.15a1.86 1.86 0 0 1-.89-.05 3.74 3.74 0 0 1 0-1.19v-2.63z"/></svg>