<?xml version="1.0" encoding="utf-8"?><svg id="djLayer_1" data-name="Layer 1" xmlns="http://www.w3.org/2000/svg" viewBox="0 0 125.43 78.39" width="32" height="20"><defs><style>.djcls-1{fill:#f9f9f9}</style></defs><title>payment-icons</title><rect class="djcls-1" width="125.43" height="78.39" rx="4.18" ry="4.18"/><path d="M71.92 30.33h5.68l.33 2 .07.03a6 6 0 0 1 .41-.47A6.49 6.49 0 0 1 82 30a5.94 5.94 0 0 1 5.19 1.52A7.11 7.11 0 0 1 89 34.41a15.65 15.65 0 0 1 .76 4.73 19.79 19.79 0 0 1-.43 5 9.75 9.75 0 0 1-2.07 4.31 7.32 7.32 0 0 1-4.55 2.44 9.41 9.41 0 0 1-4-.29h-.32v6.5l-6.47 1.07V30.33zM78.39 41v4.32c0 .6 0 .6.58.77a2.66 2.66 0 0 0 3.3-1.15 5.83 5.83 0 0 0 .73-1.89 15.17 15.17 0 0 0 .12-5.23 4.71 4.71 0 0 0-.72-2.09 1.8 1.8 0 0 0-1.88-.82 3.76 3.76 0 0 0-2 1.09.46.46 0 0 0-.15.37v4.58M97.5 42.56a4 4 0 0 0 1.32 2.93 3.8 3.8 0 0 0 2.36.71 11.53 11.53 0 0 0 5.69-1.27h.11c.08.48.16.95.23 1.42.15.94.29 1.89.45 2.83a.26.26 0 0 1-.15.31 10.46 10.46 0 0 1-3.3 1.24 15.25 15.25 0 0 1-6.45.06 7.74 7.74 0 0 1-6.14-5.85 16.42 16.42 0 0 1-.48-5.75 12.07 12.07 0 0 1 1.1-4.39 7.94 7.94 0 0 1 6.42-4.8 9.4 9.4 0 0 1 4.29.36 7 7 0 0 1 4.26 4 11.58 11.58 0 0 1 1 4.22c.07 1.27 0 2.55 0 3.82v.14H97.5zm4.71-4a9.74 9.74 0 0 0-.33-2.41 3 3 0 0 0-.8-1.41 1.89 1.89 0 0 0-2.85.54 7.58 7.58 0 0 0-.78 3.27h4.76zM20.65 44.41a15.28 15.28 0 0 0 3.74 1.48 8.47 8.47 0 0 0 2.71.35 3.21 3.21 0 0 0 .9-.18 1.23 1.23 0 0 0 .39-2.16 6.36 6.36 0 0 0-1.82-1c-1-.42-2-.82-3-1.27a6.44 6.44 0 0 1-1.94-1.39 5.07 5.07 0 0 1-1.42-3.17 6.62 6.62 0 0 1 .69-3.89 6 6 0 0 1 3.65-2.83 10.82 10.82 0 0 1 3.9-.4 15.29 15.29 0 0 1 5.32 1.24.3.3 0 0 1 .21.4c-.25 1.46-.48 2.93-.72 4.4v.13c-.56-.23-1.1-.47-1.66-.67a10.14 10.14 0 0 0-3.82-.72 2.62 2.62 0 0 0-.91.19 1 1 0 0 0-.39 1.58 2.7 2.7 0 0 0 1.12.8c.85.36 1.72.69 2.59 1a11.19 11.19 0 0 1 2.73 1.49 5.24 5.24 0 0 1 2.07 4.09 7.23 7.23 0 0 1-.6 3.5 5.86 5.86 0 0 1-3.61 3.08 11.36 11.36 0 0 1-4.31.51 16.21 16.21 0 0 1-5.9-1.41c-.62-.28-.63-.29-.52-.94l.66-4.12v-.14M44.29 24.5v5.82h4.14l-.79 4.83h-3.35V43.54a4.79 4.79 0 0 0 .14 1.11 1.37 1.37 0 0 0 1.27 1.08 6.36 6.36 0 0 0 2.11-.21h.17V50.41a.19.19 0 0 1-.15.24 12.09 12.09 0 0 1-6 .12 4.7 4.7 0 0 1-3.72-4 11.49 11.49 0 0 1-.21-2.14v-9.48h-2.66l.76-4.5c.59-.1 1.17-.2 1.75-.28a.24.24 0 0 0 .25-.25c.24-1.48.49-3 .72-4.45a.33.33 0 0 1 .28-.31l5.25-.86M61.27 36.18a8 8 0 0 0-2.69.1 3.47 3.47 0 0 0-1.78 1 .61.61 0 0 0-.19.45v12.92h-6.46V30.32h5.41a.24.24 0 0 1 .3.25c.09.68.22 1.36.33 2.07l.07-.11a3.77 3.77 0 0 1 3.53-2.46 10.11 10.11 0 0 1 1.33.1.16.16 0 0 1 .17.19v5.83M62.87 30.34h6.49v20.29h-6.49zM62.7 24.9a3.41 3.41 0 1 1 3.4 3.44 3.39 3.39 0 0 1-3.4-3.44"/></svg>