<?xml version="1.0" encoding="utf-8"?><svg id="cfLayer_1" data-name="Layer 1" xmlns="http://www.w3.org/2000/svg" viewBox="0 0 125.43 78.39" width="32" height="20"><defs><style>.cfcls-1{fill:#231f20;fill-rule:evenodd}</style></defs><title>payment-icons</title><path class="cfcls-1" d="M60.49 32.15h3.9s3.86-.08 3.82 3.43c0 2.61-3.74 3-3.74 3h-4v-6.43zm11.66 12.58c.11.51.48 1.07 1.71 1.13a4.71 4.71 0 0 0 2.57-.58v1.2a16.51 16.51 0 0 1-2.65.43c-.9 0-3.55-.19-3.55-2.65 0-2 2.18-2.61 3.43-2.61 2.18.08 3.23.86 3.2 3.08h-4.71m0-1h3a1.23 1.23 0 0 0-1.44-1.13 1.36 1.36 0 0 0-1.55 1.13m9.45-1.22a3.05 3.05 0 0 1 2.39-.82 2.56 2.56 0 0 1 2.77 2.57c0 .54-.23 2.61-3 2.61a2.64 2.64 0 0 1-2.1-.81v.66H79.7v-7h1.91v2.83zm1.64 3.25a1.67 1.67 0 0 0 1.64-1.48 1.48 1.48 0 0 0-1.71-1.44 1.53 1.53 0 0 0-1.56 1.26v.51a1.49 1.49 0 0 0 1.64 1.15m16.48-.19v1.09a8.91 8.91 0 0 1-1.48.2A2 2 0 0 1 96.18 45v-2.22h-1.6v-1h1.6v-1.22h1.95v1.21h1.6v1h-1.6v1.95a.91.91 0 0 0 .78 1 1.09 1.09 0 0 0 .82-.12M93.8 33.2h2.26v5.41H98V33.2h2.3v-1.13h-6.5v1.13zm-.8.27l.23-1.13a7.24 7.24 0 0 0-2.69-.43c-1.68 0-4.36.93-4.36 3.47s2.84 3.35 4.6 3.35a6.38 6.38 0 0 0 2.34-.27l-.19-1.25a8 8 0 0 1-2.1.23c-1.29 0-2.61-1.05-2.61-2.18A2.64 2.64 0 0 1 91 33.12a6.25 6.25 0 0 1 2.07.35M75.8 32.11S79 32 79 33.82c0 1.6-1.83 1.71-1.83 1.71a1.21 1.21 0 0 1 .74.43c.2.31 1.48 2.65 1.48 2.65h-1.95A7 7 0 0 1 77 38c-.12-.27-.47-.86-.47-.86a1.34 1.34 0 0 0-1.21-1h-.7v2.52h-1.89v-6.5h3.07zM74.6 35h1s1.4-.08 1.48-.93-1.36-.94-1.36-.94H74.6V35zm7.83 1h3.12v-1.17h-3.13v-1.48h3.39v-1.24h-5.3v6.5h5.34v-1.17h-3.43V36zM90 41h1.91v-1.3H90V41zm0 5.69h1.91v-4.92H90v4.95zm-20.8-8.1h1.87v-6.5h-1.85v6.5zm-8.73 1.64h3.9s3.86-.08 3.82 3.43c0 2.61-3.74 3-3.74 3h-4v-6.41zm1.91 5.22h1.25s2.57-.15 2.57-2.14-2.73-2.18-2.73-2.18H62.4v4.32zm0-8.1h1.25s2.57-.2 2.57-2.14S63.49 33 63.49 33H62.4v4.32zM43 36v13s-7.56-1.36-7.56-6.54c0-4.13 5.6-6 7.56-6.49m0-.24c-4.54-.33-14.84 1.8-14.84 6.46 0 3 5.45 7.48 14.33 7.6.35 0 10.44-.39 10.28-11.22-.13-9.09-6.94-10.69-9.12-11v-.48c8.68.55 15.5 5.77 15.5 12.1 0 6.7-7.63 12.15-17 12.15s-17-5.45-17-12.15S32.76 27 42.15 27H43v8.72z"/></svg>