<?xml version="1.0" encoding="utf-8"?><svg id="biLayer_1" data-name="Layer 1" xmlns="http://www.w3.org/2000/svg" viewBox="0 0 125.43 78.39" width="32" height="20"><defs><style>.bicls-1{fill:#0078a9}.bicls-2{fill:#fff}</style></defs><title>payment-icons</title><rect class="bicls-1" width="125.43" height="78.39" rx="4.18" ry="4.18"/><path class="bicls-2" d="M38.92 37.37v-1.25l-.6 1.25h-5.2L32.47 36v1.35h-9.71l-1.15-2.71h-1.94l-1.21 2.71h-5v-8.2l3.69-8.35h7.06l1 2.36v-2.31h8.64l1.9 4 1.86-4h27.23a4.66 4.66 0 0 1 2.37.64v-.66h6.87v.9a5.6 5.6 0 0 1 3.06-.9h12.13l1.06 2.4v-2.4h7.77l1.41 2.4v-2.4h7.43v16.56h-7.63l-1.8-2.89v2.87H88l-1.33-3h-1.83l-1.25 3h-5.74a7.43 7.43 0 0 1-3.75-1.17v1.18H62.67v-3.87a.43.43 0 0 0-.43-.51h-.42v4.39h-22.9zM33.21 41h15l2.17 2.45L52.61 41h11.55a5.31 5.31 0 0 1 2.11.58V41h10.28a5.24 5.24 0 0 1 2.4.65V41h13.22v.6a4.48 4.48 0 0 1 2.21-.6H103v.6a5.26 5.26 0 0 1 2.23-.6H112v15.6a3.73 3.73 0 0 1-2.73 1h-8.91v-.5a4.58 4.58 0 0 1-2.14.5h-23.7v-4c0-.4-.17-.47-.53-.47h-.32v4.5h-7.4v-4.54a5 5 0 0 1-2.19.44h-2.66v4H52.3L50.23 55 48 57.57H33.21V41z"/><path class="bicls-1" d="M80.54 43.45h9.42v2.52h-6.54v2.21h6.36v2.22h-6.36v2.32h6.54v2.47h-9.42V43.45zM108.17 48c3.54.18 3.84 2 3.84 3.84a3.43 3.43 0 0 1-3.69 3.38h-6.06v-2.5H107c.8 0 2 0 2-1.13 0-.54-.21-.88-1.06-1-.38-.05-1.78-.13-2-.14-3.2-.08-3.94-1.68-3.94-3.61a3.24 3.24 0 0 1 3.43-3.4h6.05V46H107c-1 0-2.1-.12-2.1 1 0 .72.54.87 1.22.93.24 0 1.81.08 2 .08M97.31 48c3.54.18 3.84 2 3.84 3.84a3.43 3.43 0 0 1-3.7 3.38h-6.04v-2.5h4.72c.8 0 2 0 2-1.13 0-.54-.21-.88-1.06-1-.38-.05-1.78-.13-2-.14-3.2-.08-3.94-1.68-3.94-3.61a3.23 3.23 0 0 1 3.43-3.4h6.05V46h-4.43c-1 0-2.1-.12-2.1 1 0 .72.54.87 1.22.93.24 0 1.81.08 2 .08M63.14 43.47H53l-3.3 3.64-3.2-3.67H35.16v11.75h11l3.46-3.88 3.38 3.9h5.53v-4h3.87c1.49 0 4.22-.05 4.22-4.17a3.25 3.25 0 0 0-3.49-3.59m-18.48 9.27H38V50.4h6.36v-2.22H38V46h7l2.81 3.19zm11 1.36l-4.14-4.9 4.14-4.59v9.49zm6.5-5.28h-3.57V46h3.6a1.42 1.42 0 1 1 0 2.82M77.06 49.87a3.2 3.2 0 0 0 2-3.25c0-2.51-2-3.14-3.46-3.14h-7.5v11.73H71v-4.14h3.77c1 0 1.39 1 1.41 2l.08 2.15h2.81l-.1-2.41c0-1.89-.52-2.78-1.89-2.93m-2.49-1.22H71V46h3.6a1.38 1.38 0 0 1 1.59 1.35c0 .79-.42 1.31-1.6 1.31M69.26 23.18h2.88v11.75h-2.88zM45.66 23.19h9.42v2.53h-6.54v2.2h6.36v2.23h-6.36v2.32h6.54v2.46h-9.42V23.19zM65.75 29.59a3.2 3.2 0 0 0 2-3.25c0-2.52-2-3.14-3.46-3.14h-7.5v11.73h2.88v-4.14h3.77c1 0 1.39 1 1.42 2l.08 2.15h2.8l-.1-2.41c0-1.89-.53-2.78-1.89-2.94m-2.49-1.21h-3.59v-2.67h3.6a1.38 1.38 0 0 1 1.59 1.35c0 .79-.42 1.31-1.6 1.31M39 23.19l-3.54 7.88-3.53-7.87h-4.5v11.3l-5-11.31h-3.85l-5.13 11.74h3l1.13-2.62h5.75l1.14 2.62h5.8v-8.71l3.85 8.71h2.62l3.94-8.57v8.57h2.88V23.19H39zm-20.3 6.59l1.72-4.1 1.79 4.1H18.7zM101.88 23.19v8.13L97 23.19h-4.24v11l-4.91-11H84l-4 9.09h-1.85c-.69-.14-1.78-.63-1.79-2.7v-.89c0-2.75 1.49-3 3.41-3h1.78v-2.5h-3.7c-1.31 0-4.16 1-4.26 5.82-.07 3.25 1.35 5.93 4.55 5.93h3.8l1.13-2.62h5.75L90 34.94h5.69v-8.6l5.19 8.6h3.93V23.19h-2.88zm-17.7 6.6l1.72-4.1 1.81 4.1h-3.53z"/></svg>