<?xml version="1.0" encoding="utf-8"?><svg id="bnLayer_1" data-name="Layer 1" xmlns="http://www.w3.org/2000/svg" viewBox="0 0 125.43 78.39" width="32" height="20"><defs><style>.bncls-1{fill:#0c489c}.bncls-2{fill:#fff}</style></defs><title>payment-icons</title><rect class="bncls-1" width="125.43" height="78.39" rx="4.18" ry="4.18"/><path class="bncls-2" d="M84.55 41.86c.15 4.57.31 9.29.08 13.94a6.3 6.3 0 0 1-3 4.64 9 9 0 0 1-4.57 1L71 61.35V22.59a6.56 6.56 0 0 1 4.65-5.48 84 84 0 0 1 8.83-.3l.15 2v22l-.08.08v1zM40.69 40.41V22.14a6.63 6.63 0 0 1 4-4.72c3-.91 6.4-.38 9.44-.46.15 3 0 6.7.08 9.29l.15 23.83c-.38 3.66 1 8.6-3.58 10.66-2.89 1.44-6.77.53-10.05.84l-.04-.58V40.41zM69.39 19.47l.08 37.08a6.74 6.74 0 0 1-3.81 4.34c-2.89 1-6.47.53-9.67.53l-.15-39.06a6 6 0 0 1 3-4.42 7.68 7.68 0 0 1 4-1.07h6.47z"/><path class="bncls-1" d="M40.69 41.17a6.62 6.62 0 0 0 4.95 2.89c2.51.23 5.78.46 7.46-1.9 1.14-1.22.46-2.89.69-4.49l-.08-2.89c-1.45-.31-2.74 0-4.42-.08-.84 3.12 1.37 6.63-2.21 8.22a4 4 0 0 1-2.9-.46c-1.37-.3-.61-2.51-2.44-1.9l-1.06-.15v.76zM68.79 34.78a7.67 7.67 0 0 1 .07 1.37c-2.28-.61-5.1-1.3-7.16.38a3.79 3.79 0 0 0 1.22 6.24c2 .61 4 .08 5.86-.38a2.23 2.23 0 0 1 0 1.22H60a4.53 4.53 0 0 1-3.43-2.66 4.69 4.69 0 0 1 .76-4.65A4.45 4.45 0 0 1 61 34.7zM84.55 41.86a2.54 2.54 0 0 1-1.9 1.9H72l-.38-.15c0-3-.08-5.94.08-8.91h6.78c2.13.23 4.49-.69 5.48 1.3a2 2 0 0 1-.3 2.13c-.3.53-1 .61-1.14 1a3.15 3.15 0 0 1 2.05 1.75v1zm-9.14-6.24a7.34 7.34 0 0 0-.08 2.89c1.6-.07 3.66.53 4.72-.68a1.51 1.51 0 0 0-.08-1.6c-1.22-1.06-3-.38-4.57-.61m4.11 4.19a20 20 0 0 0-4.26-.08 14.07 14.07 0 0 0 .15 3.12c1.52 0 3.2.23 4.57-.46a1.62 1.62 0 0 0 .46-1.52 1.6 1.6 0 0 0-.91-1.07"/></svg>