<?xml version="1.0" encoding="utf-8"?><svg id="cmLayer_1" data-name="Layer 1" xmlns="http://www.w3.org/2000/svg" viewBox="0 0 125.43 78.39" width="32" height="20"><defs><style>.cmcls-1{fill:#369}.cmcls-2{fill:#036}</style></defs><title>payment-icons</title><path class="cmcls-1" d="M88.87 34.39a8 8 0 0 0-3.73-.67 16.4 16.4 0 0 0-2.53.2c-.61.08-.68.08-1.07.2a1.22 1.22 0 0 0-.92 1l-.25 1.05c-.15.67.24.64.41.59a10.68 10.68 0 0 1 1.22-.4 9.21 9.21 0 0 1 2-.26 5.18 5.18 0 0 1 1.89.27 1 1 0 0 1 .63.95.71.71 0 0 1 0 .3.32.32 0 0 1-.3.19c-1.19.07-2 .18-3.08.33a9.63 9.63 0 0 0-2.65.73 4.12 4.12 0 0 0-1.8 1.42 3.87 3.87 0 0 0-.6 2.18 2.56 2.56 0 0 0 .85 2 3.21 3.21 0 0 0 2.2.76 5.88 5.88 0 0 0 1.31-.12 6.7 6.7 0 0 0 1-.34 5.22 5.22 0 0 0 .86-.48l.79-.53-.1.31a.62.62 0 0 0 .56.78h2a1.09 1.09 0 0 0 .89-.78l1.52-6.58A3.92 3.92 0 0 0 90 37a4.4 4.4 0 0 0 0-.5 2.2 2.2 0 0 0-1.19-2.06m-3.7 7.84a5.57 5.57 0 0 1-.82.42 3 3 0 0 1-1.09.24 2.43 2.43 0 0 1-1.19-.23.8.8 0 0 1-.41-.78 1.6 1.6 0 0 1 .3-1 2.18 2.18 0 0 1 .89-.6 7.57 7.57 0 0 1 1.45-.33c.48-.06 1.42-.17 1.54-.17s.2-.07.15.25c0 .14-.3 1.26-.42 1.76a1 1 0 0 1-.33.43"/><path class="cmcls-2" d="M62.64 33.87a1.79 1.79 0 0 0-1.31.8L58 40.31c-.16.28-.32.1-.35 0l-.92-5.61a1.15 1.15 0 0 0-1.14-.82h-1.83a.62.62 0 0 0-.63.8s1.43 8.08 1.7 10a2.09 2.09 0 0 1 0 1.24L53 49.13c-.27.43-.12.79.33.79h2.16a1.76 1.76 0 0 0 1.31-.79l8.32-14.07s.8-1.2.06-1.19h-2.54M36.38 36.73a4.39 4.39 0 0 1-2.64.69h-.51a.62.62 0 0 1-.64-.8l.63-2.71a1.06 1.06 0 0 1 1-.79h.68a3.31 3.31 0 0 1 1.82.41 1.36 1.36 0 0 1 .6 1.24 2.25 2.25 0 0 1-.94 2m4.51-4.18a3.12 3.12 0 0 0-1.14-1.23 5.27 5.27 0 0 0-1.81-.67 15.21 15.21 0 0 0-2.47-.2h-4.36a1.09 1.09 0 0 0-1 .8L27.17 44a.62.62 0 0 0 .63.8h2.09a1.07 1.07 0 0 0 1-.8l.72-3.1a1.07 1.07 0 0 1 1-.79h.6a9.91 9.91 0 0 0 6-1.57 4.89 4.89 0 0 0 2.13-4.14 3.9 3.9 0 0 0-.4-1.88"/><path class="cmcls-1" d="M74.29 36.78a4.42 4.42 0 0 1-2.63.68h-.52a.62.62 0 0 1-.63-.79l.62-2.67a1.07 1.07 0 0 1 1-.79h.68a3.41 3.41 0 0 1 1.82.4 1.4 1.4 0 0 1 .61 1.25 2.3 2.3 0 0 1-.94 2m4.5-4.26a3.2 3.2 0 0 0-1.15-1.23 5.17 5.17 0 0 0-1.82-.67 14.4 14.4 0 0 0-2.46-.19H69a1.09 1.09 0 0 0-1 .8l-2.92 12.78a.62.62 0 0 0 .63.79h2.1a1.09 1.09 0 0 0 1-.79l.7-3.09a1.07 1.07 0 0 1 1-.79h.6a9.88 9.88 0 0 0 6-1.57 4.92 4.92 0 0 0 2.13-4.14 4 4 0 0 0-.4-1.88"/><path class="cmcls-2" d="M51 34.38a8 8 0 0 0-3.73-.67 16.53 16.53 0 0 0-2.53.2c-.67.09-.74.09-1.12.2a1.22 1.22 0 0 0-.92 1l-.26 1c-.15.67.24.64.41.59a11.16 11.16 0 0 1 1.24-.37 9.09 9.09 0 0 1 2-.27 5.18 5.18 0 0 1 1.89.27 1 1 0 0 1 .63.95.67.67 0 0 1 0 .29.32.32 0 0 1-.3.19c-1.19.07-2 .18-3.08.33a9.62 9.62 0 0 0-2.65.73 4.14 4.14 0 0 0-1.79 1.42 3.83 3.83 0 0 0-.6 2.18 2.56 2.56 0 0 0 .85 2 3.2 3.2 0 0 0 2.2.76 5.9 5.9 0 0 0 1.31-.12 6.55 6.55 0 0 0 1-.34 5.21 5.21 0 0 0 .86-.48l.79-.53-.08.34a.62.62 0 0 0 .56.78h2a1.09 1.09 0 0 0 .89-.78L52 37.49a3.72 3.72 0 0 0 .08-.54 4 4 0 0 0 0-.5A2.2 2.2 0 0 0 51 34.38m-3.69 7.84a5.33 5.33 0 0 1-.82.42 2.94 2.94 0 0 1-1.09.24 2.44 2.44 0 0 1-1.19-.23.81.81 0 0 1-.41-.78 1.59 1.59 0 0 1 .3-1 2.14 2.14 0 0 1 .89-.6 7.7 7.7 0 0 1 1.38-.31c.48-.06 1.42-.17 1.54-.17s.2-.07.15.25c0 .14-.3 1.26-.42 1.76a1 1 0 0 1-.33.43"/><path class="cmcls-1" d="M96.07 30.62H94.2a1.07 1.07 0 0 0-1 .73v.07l-.1.47-2.59 11.68-.12.5a.61.61 0 0 0 .55.77h1.96a1.08 1.08 0 0 0 1-.73v-.07l2.8-12.67a.62.62 0 0 0-.63-.79M98.9 33.2H98.49a.63.63 0 0 1-.49-.11.76.76 0 0 1-.16-.54v-1.08h-.21v-.29h.23v-.58h.34v.58h.7v.29h-.7V32.65l.05.17.11.11a.53.53 0 0 0 .21 0H98.87v.27zM102.28 33.22h-.34v-1.41l-.05-.19-.12-.12a.52.52 0 0 0-.23 0 .61.61 0 0 0-.29.07 1.62 1.62 0 0 0-.29.18v1.51h-.34V31.8l-.05-.19-.12-.12a.54.54 0 0 0-.22 0 .62.62 0 0 0-.28.07 1.68 1.68 0 0 0-.28.18v1.52h-.35v-2h.34v.22a1.52 1.52 0 0 1 .34-.28.78.78 0 0 1 .34-.07.66.66 0 0 1 .35.09.55.55 0 0 1 .22.24 1.66 1.66 0 0 1 .38-.25.89.89 0 0 1 .36-.08.59.59 0 0 1 .5.2.9.9 0 0 1 .16.57v1.32z"/></svg>