<?xml version="1.0" encoding="utf-8"?><svg id="ctLayer_1" data-name="Layer 1" xmlns="http://www.w3.org/2000/svg" viewBox="0 0 125.43 78.39" width="32" height="20"><defs><style>.ctcls-1,.ctcls-2{fill:#121212}.ctcls-2{fill-rule:evenodd}</style></defs><title>payment-icons</title><path class="ctcls-1" d="M95.26 31.37h.63v15.85h-.63zM87.68 31.32h.63v15.85h-.63zM33.23 31.35l-.66 4.46-.66-4.46h-2.94l-.66 4.35-.65-4.35h-2.51l1.51 7.06h3.13l.64-4.57.64 4.57h3.08l1.49-7.06h-2.41z"/><path class="ctcls-2" d="M36.85 38.41h6.13v-1.84h-3.09v-.83h2.91v-1.82h-2.91v-.76h2.99v-1.81h-6.03v7.06zM44.3 36.14v.25c0 1.35 1.22 2.13 3.52 2.13s3.5-.81 3.5-2.3c0-1.29-.72-1.67-2.53-2.28-1-.32-1.52-.31-1.52-.8a.47.47 0 0 1 .57-.46.65.65 0 0 1 .69.78h2.6v-.3c0-1.24-1.13-2-3.21-2-2.29 0-3.5.89-3.5 2.27 0 1 .61 1.56 1.88 1.93a13.69 13.69 0 0 1 1.86.66.45.45 0 0 1 .25.5.52.52 0 0 1-.62.44.63.63 0 0 1-.66-.79v-.03H44.3zM58.78 31.35h-6.71v1.88h1.87v5.18h2.98v-5.18h1.86v-1.88zM60.07 38.41h6.13v-1.84h-3.09v-.83H66v-1.82h-2.89v-.76h2.99v-1.81h-6.03v7.06zM68.07 38.41H71v-2.52h.27c.71 0 .81.26.92 1l.08.52a7.3 7.3 0 0 0 .23 1h3c-.13-.52-.23-.94-.27-1.26l-.1-.76a1.5 1.5 0 0 0-1.31-1.56 1.71 1.71 0 0 0 1.41-1.65c0-1.41-.89-1.83-3-1.83h-4.16v7.06zM71 34.16v-1.23h.34c.66 0 1 .16 1 .6s-.37.65-1.07.65H71M79.27 34.38l1.57 4.03h3.42v-7.06h-2.31v3.59l-1.31-3.59h-3.68v7.06h2.31v-4.03zM55.9 42.8l1.58 4.03h3.41v-7.06h-2.31v3.6l-1.3-3.6h-3.69v7.06h2.31V42.8zM79.34 42.8l1.57 4.03h3.42v-7.06h-2.31v3.6l-1.3-3.6h-3.69v7.06h2.31V42.8zM44.46 39.77V44a2.5 2.5 0 0 0 .68 2.06 4 4 0 0 0 2.93.87C50.54 47 51.7 46 51.7 44v-4.23h-2.93v4.36a.73.73 0 0 1-.69.89.72.72 0 0 1-.69-.89v-4.36h-2.93z"/><path class="ctcls-1" d="M62.81 39.77h3.01v7.06h-3.01z"/><path class="ctcls-2" d="M71.33 46.94c2.67 0 4.11-1.29 4.11-3.69s-1.45-3.7-4-3.7-4 1.34-4 3.71 1.44 3.68 3.94 3.68m.09-5.75c.69 0 .86.61.86 1.95 0 1.49-.18 2.17-.87 2.17s-.86-.67-.86-2 .15-2.09.87-2.09M99.13 31.25a1.1 1.1 0 0 0-.8.33 1.17 1.17 0 0 0-.35.83 1.14 1.14 0 0 0 .34.8 1.13 1.13 0 0 0 .81.35 1.18 1.18 0 0 0 .82-.34 1.11 1.11 0 0 0 .34-.81 1.15 1.15 0 0 0-.33-.81 1.13 1.13 0 0 0-.82-.35m1 1.16a1 1 0 0 1-.29.69 1 1 0 0 1-.72.29 1 1 0 0 1-.7-.3 1 1 0 0 1-.3-.7 1 1 0 0 1 .3-.72 1 1 0 0 1 .7-.29 1 1 0 0 1 .71.3 1 1 0 0 1 .29.71m-1-.68h-.46V33h.24v-.53h.24l.27.53h.28l-.29-.6a.34.34 0 0 0 .3-.35c0-.24-.18-.36-.54-.36m0 .16c.23 0 .34.06.34.22s-.11.21-.33.21h-.27v-.4h.2z"/></svg>