<?xml version="1.0" encoding="utf-8"?><svg id="dmLayer_1" data-name="Layer 1" xmlns="http://www.w3.org/2000/svg" viewBox="0 0 125.43 78.39" width="32" height="20"><defs><style>.dmcls-1{fill:#f9f9f9}.dmcls-2{fill:#faa929}.dmcls-2,.dmcls-3{fill-rule:evenodd}.dmcls-3,.dmcls-4{fill:#045ea0}</style></defs><title>payment-icons</title><rect class="dmcls-1" width="125.43" height="78.39" rx="4.18" ry="4.18"/><path class="dmcls-2" d="M42.24 44.15a65 65 0 0 1 40.44-4.06l.19-4.47c-18.61-2-32 3.89-40.63 8.1v.44z"/><path class="dmcls-3" d="M25.11 47.44h8.94v2.69H28.5l-.04 2.49H34v2.58h-5.56l.02 2.49h5.48v2.7h-8.83V47.44z"/><path class="dmcls-4" d="M36.3 46.35h3.26v14.03H36.3z"/><path class="dmcls-3" d="M50.75 59.32a6.88 6.88 0 0 1-4.29 1.4 4.66 4.66 0 0 1-5-4.84 5.12 5.12 0 0 1 5.07-5.26c3.59 0 4.72 2.55 4.72 5.78h-6.5a2 2 0 0 0 2.26 2 4.18 4.18 0 0 0 2.66-.93zm-2.39-4.83a1.61 1.61 0 0 0-1.55-1.85 2.24 2.24 0 0 0-2 1.85h3.57zM61.16 59.75a7.41 7.41 0 0 1-3.46 1c-3 0-5.15-1.72-5.15-4.83a5 5 0 0 1 5.35-5.28 6.68 6.68 0 0 1 3.2.82l-1 2.13a4 4 0 0 0-1.54-.37 2.46 2.46 0 0 0-2.71 2.53 2.39 2.39 0 0 0 2.43 2.41A4.1 4.1 0 0 0 60 57.6zM62.36 51h1.47v-3.2H67l-.11 3.2h2.68l-.06 2.36h-2.68c0 1.31-.09 2.69-.09 3.5s.21 1.14.94 1.14a2.34 2.34 0 0 0 1.2-.45l.71 2.21a6.38 6.38 0 0 1-3.22.93c-2.64 0-2.77-1.67-2.77-3.83 0-1.16.09-2.32.09-3.58h-1.4zM71.23 51h3.26v1.33a2.69 2.69 0 0 1 2.4-1.59 5 5 0 0 1 1.07.11L77.55 54a3.82 3.82 0 0 0-1.16-.19 2.3 2.3 0 0 0-1.93 1.1l-.06 5.45h-3.24zM83.88 50.62c3.48 0 5.28 2.21 5.28 5.05s-1.8 5.05-5.28 5.05-5.28-2.21-5.28-5.05 1.8-5.05 5.28-5.05m0 7.64c1.55 0 2-1.35 2-2.58s-.47-2.58-2-2.58-2 1.35-2 2.58.47 2.58 2 2.58M90.93 51h3.26v1a4.62 4.62 0 0 1 3.05-1.37c2 0 3.09 1.1 3.09 3.69v6.08H97v-5.6a1.11 1.11 0 0 0-1.18-1.37 3 3 0 0 0-1.7.86v6.1h-3.27zM51.89 31.53L56 17.97h3.67l-4.11 13.56h-3.67zM50.25 18l-3.3 5.75a13.93 13.93 0 0 0-1.57 3.22c.06-1.21-.11-2.69-.13-3.53L44.84 18h-6.18l-.06.37a2.56 2.56 0 0 1 2.79 2.43l1.2 10.77h3.8L54.08 18h-3.83zM78.79 31.53l-.1-2h-4.58l-.94 2h-4L76.41 18h4.89l1.22 13.54h-3.73zm-.42-8a30.86 30.86 0 0 1 0-3.19h-.06C78.08 21 77.13 23 76.7 24l-1.36 3h3.22zM63.53 31.92A10.26 10.26 0 0 1 58 30.36l1.75-2.67a6.76 6.76 0 0 0 4 1.33 1.7 1.7 0 0 0 1.61-.77c.51-.88-.12-1.36-1.55-2.17l-.81-.46c-2.13-1.45-3-2.83-2-5.24.64-1.54 2.33-2.71 5.11-2.71a8.22 8.22 0 0 1 4.77 1.64l-2 2.36A4.47 4.47 0 0 0 66 20.42a1.71 1.71 0 0 0-1.56.7c-.38.76.12 1.27 1.24 2l.84.54c2.58 1.63 3.2 3.33 2.55 4.93-1.07 2.71-3.27 3.33-5.54 3.33"/></svg>