<?xml version="1.0" encoding="utf-8"?><svg id="cbLayer_1" data-name="Layer 1" xmlns="http://www.w3.org/2000/svg" viewBox="0 0 125.43 78.39" width="32" height="20"><defs><style>.cbcls-1{fill:none}.cbcls-2{clip-path:url(#cbclip-path)}.cbcls-3{fill:#f90}.cbcls-3,.cbcls-4{fill-rule:evenodd}</style><clipPath id="cbclip-path"><path class="cbcls-1" d="M25.14 27.87h75.16v22.65H25.14z"/></clipPath></defs><title>payment-icons</title><g class="cbcls-2 cbcls-2"><path class="cbcls-3" d="M71.76 45.58c-4.37 3.22-10.7 4.94-16.15 4.94A29.21 29.21 0 0 1 35.89 43c-.41-.37 0-.87.45-.59a39.7 39.7 0 0 0 19.74 5.24 39.26 39.26 0 0 0 15.06-3.08c.74-.31 1.36.49.64 1"/><path class="cbcls-3" d="M73.58 43.51c-.56-.71-3.69-.34-5.1-.17-.43 0-.49-.32-.11-.59 2.5-1.76 6.6-1.25 7.07-.66s-.12 4.7-2.47 6.66c-.36.3-.7.14-.54-.26.53-1.32 1.71-4.26 1.15-5"/><path class="cbcls-4" d="M68.58 30.34v-1.7a.42.42 0 0 1 .42-.43h7.65a.43.43 0 0 1 .44.43v1.46a2.37 2.37 0 0 1-.58 1.07l-4 5.66a8.48 8.48 0 0 1 4.36.94.77.77 0 0 1 .41.66v1.82a.41.41 0 0 1-.56.39 8.81 8.81 0 0 0-8.08 0 .41.41 0 0 1-.55-.4v-1.71a2.05 2.05 0 0 1 .29-1.17L73 30.78h-4a.43.43 0 0 1-.44-.43M40.69 41h-2.33a.44.44 0 0 1-.42-.39V28.67a.44.44 0 0 1 .45-.43h2.17a.44.44 0 0 1 .42.4v1.56a3.2 3.2 0 0 1 6.08 0 3.43 3.43 0 0 1 5.94-.91c.74 1 .59 2.46.59 3.74v7.53a.44.44 0 0 1-.45.43h-2.31a.44.44 0 0 1-.42-.43v-6.32a15.23 15.23 0 0 0-.06-2.24A1.21 1.21 0 0 0 49 31a1.54 1.54 0 0 0-1.39 1 7.24 7.24 0 0 0-.22 2.29v6.33a.44.44 0 0 1-.45.43H44.6a.44.44 0 0 1-.42-.43v-6.38c0-1.33.22-3.29-1.43-3.29s-1.61 1.91-1.61 3.29v6.33a.44.44 0 0 1-.45.43M83.68 28c3.46 0 5.32 3 5.32 6.72s-2.06 6.53-5.32 6.53-5.23-3-5.23-6.66S80.31 28 83.68 28m0 2.44c-1.72 0-1.82 2.34-1.82 3.79s0 4.57 1.8 4.57 1.89-2.51 1.89-4a11.05 11.05 0 0 0-.35-3.17 1.46 1.46 0 0 0-1.52-1.15M93.48 41h-2.32a.44.44 0 0 1-.42-.43V28.63a.44.44 0 0 1 .45-.39h2.16a.45.45 0 0 1 .41.33v1.83c.69-1.63 1.6-2.4 3.24-2.4a3.05 3.05 0 0 1 2.71 1.41 7.61 7.61 0 0 1 .61 3.72v7.51a.44.44 0 0 1-.45.38h-2.35a.44.44 0 0 1-.41-.38v-6.5c0-1.31.15-3.22-1.46-3.22a1.52 1.52 0 0 0-1.35 1 5.32 5.32 0 0 0-.37 2.26v6.43a.44.44 0 0 1-.45.43M62.48 35.3a4.57 4.57 0 0 1-.43 2.47 1.89 1.89 0 0 1-1.61 1.06A1.46 1.46 0 0 1 59 37.14c0-2 1.78-2.34 3.46-2.34v.5zm2.35 5.7a.48.48 0 0 1-.55.05 5.67 5.67 0 0 1-1.33-1.55 4.61 4.61 0 0 1-3.83 1.69 3.3 3.3 0 0 1-3.48-3.62 4 4 0 0 1 2.48-3.8 16.18 16.18 0 0 1 4.37-.8v-.3a3 3 0 0 0-.28-1.69 1.55 1.55 0 0 0-1.31-.6 1.77 1.77 0 0 0-1.9 1.36.49.49 0 0 1-.4.43l-2.25-.24a.41.41 0 0 1-.35-.5c.52-2.73 3-3.56 5.2-3.56A5.28 5.28 0 0 1 64.73 29c1.13 1.06 1 2.47 1 4v3.62a3.17 3.17 0 0 0 .88 2.16.44.44 0 0 1 0 .62c-.47.4-1.32 1.13-1.78 1.55zM32 35.3a4.57 4.57 0 0 1-.43 2.47 1.89 1.89 0 0 1-1.61 1.06 1.46 1.46 0 0 1-1.42-1.69c0-2 1.78-2.34 3.46-2.34v.5zm2.34 5.7a.48.48 0 0 1-.55.05 5.69 5.69 0 0 1-1.33-1.55 4.61 4.61 0 0 1-3.84 1.69 3.3 3.3 0 0 1-3.48-3.62 4 4 0 0 1 2.48-3.8 16.2 16.2 0 0 1 4.37-.8v-.3a3 3 0 0 0-.28-1.69 1.55 1.55 0 0 0-1.3-.6 1.77 1.77 0 0 0-1.87 1.4.49.49 0 0 1-.4.43l-2.25-.24a.41.41 0 0 1-.35-.49c.52-2.73 3-3.56 5.2-3.56A5.28 5.28 0 0 1 34.23 29c1.13 1.06 1 2.47 1 4v3.62a3.18 3.18 0 0 0 .88 2.16.44.44 0 0 1 0 .62c-.48.4-1.32 1.13-1.78 1.55z"/></g></svg>