<?xml version="1.0" encoding="utf-8"?><svg id="dgLayer_1" data-name="Layer 1" xmlns="http://www.w3.org/2000/svg" viewBox="0 0 125.43 78.39" width="32" height="20"><defs><style>.dgcls-1{fill:#f9f9f9}.dgcls-2{fill:#369}.dgcls-3{fill:#036}</style></defs><title>payment-icons</title><rect class="dgcls-1" width="125.43" height="78.39" rx="4.18" ry="4.18"/><path class="dgcls-2" d="M87.87 35a8 8 0 0 0-3.73-.67 16.39 16.39 0 0 0-2.53.2c-.62.09-.69.11-1.07.19a1.22 1.22 0 0 0-.92 1l-.25 1c-.14.67.24.64.41.59a10.66 10.66 0 0 1 1.22-.38 9.21 9.21 0 0 1 2-.26 5.18 5.18 0 0 1 1.89.27 1 1 0 0 1 .63.95.72.72 0 0 1 0 .3.33.33 0 0 1-.3.19c-1.19.07-2 .18-3.08.33a9.63 9.63 0 0 0-2.65.73 4.13 4.13 0 0 0-1.8 1.42A3.87 3.87 0 0 0 77 43a2.56 2.56 0 0 0 .85 2 3.2 3.2 0 0 0 2.2.76 5.88 5.88 0 0 0 1.31-.12 6.63 6.63 0 0 0 1-.34 5.21 5.21 0 0 0 .86-.48l.79-.53-.01.35a.62.62 0 0 0 .56.78h2a1.09 1.09 0 0 0 .89-.78l1.53-6.58a3.93 3.93 0 0 0 .02-.53 4.36 4.36 0 0 0 0-.5A2.2 2.2 0 0 0 87.87 35m-3.7 7.84a5.57 5.57 0 0 1-.82.42 3 3 0 0 1-1.09.24 2.43 2.43 0 0 1-1.19-.23.8.8 0 0 1-.41-.78 1.6 1.6 0 0 1 .3-1 2.18 2.18 0 0 1 .89-.6 7.57 7.57 0 0 1 1.38-.31c.48-.06 1.42-.17 1.54-.17s.2-.07.15.25c0 .14-.3 1.26-.42 1.76a1 1 0 0 1-.33.43"/><path class="dgcls-3" d="M61.64 34.44a1.79 1.79 0 0 0-1.31.8L57 40.88c-.16.28-.32.1-.35 0l-.92-5.61a1.15 1.15 0 0 0-1.14-.82h-1.83a.62.62 0 0 0-.63.8s1.43 8.08 1.7 10a2.09 2.09 0 0 1 0 1.24L52 49.7c-.27.44-.12.8.33.8h2.16a1.76 1.76 0 0 0 1.31-.79l8.32-14.07s.8-1.2.06-1.19h-2.54M35.38 37.3a4.39 4.39 0 0 1-2.63.69h-.52a.62.62 0 0 1-.64-.8l.63-2.71a1.06 1.06 0 0 1 1-.79h.68a3.3 3.3 0 0 1 1.81.41 1.36 1.36 0 0 1 .6 1.24 2.25 2.25 0 0 1-.94 2m4.51-4.17a3.11 3.11 0 0 0-1.15-1.23 5.26 5.26 0 0 0-1.81-.67 15.21 15.21 0 0 0-2.46-.2h-4.35a1.09 1.09 0 0 0-1 .79l-2.94 12.75a.62.62 0 0 0 .63.8h2.09a1.07 1.07 0 0 0 1-.8l.72-3.1a1.07 1.07 0 0 1 1-.79h.6a9.9 9.9 0 0 0 6-1.57A4.88 4.88 0 0 0 40.29 35a3.9 3.9 0 0 0-.4-1.88"/><path class="dgcls-2" d="M73.29 37.35a4.42 4.42 0 0 1-2.63.68h-.52a.62.62 0 0 1-.63-.8l.63-2.71a1.07 1.07 0 0 1 1-.79h.68a3.41 3.41 0 0 1 1.82.4 1.4 1.4 0 0 1 .61 1.25 2.3 2.3 0 0 1-.94 2m4.51-4.18a3.2 3.2 0 0 0-1.15-1.23 5.16 5.16 0 0 0-1.82-.67 14.43 14.43 0 0 0-2.46-.19H68a1.09 1.09 0 0 0-1 .8l-2.92 12.75a.62.62 0 0 0 .63.8h2.1a1.09 1.09 0 0 0 1-.79l.71-3.1a1.07 1.07 0 0 1 1-.79h.6a9.87 9.87 0 0 0 6-1.57 4.92 4.92 0 0 0 2.13-4.14 4 4 0 0 0-.4-1.88"/><path class="dgcls-3" d="M50 35a8 8 0 0 0-3.73-.67 16.53 16.53 0 0 0-2.53.2c-.62.1-.68.11-1.07.2a1.22 1.22 0 0 0-.92 1l-.26 1c-.15.67.24.64.41.59a11.32 11.32 0 0 1 1.24-.37 9.14 9.14 0 0 1 2-.26 5.18 5.18 0 0 1 1.89.27 1 1 0 0 1 .63.95.67.67 0 0 1 0 .29.32.32 0 0 1-.3.19c-1.19.07-2 .18-3.08.33a9.61 9.61 0 0 0-2.65.73 4.14 4.14 0 0 0-1.79 1.42 3.83 3.83 0 0 0-.6 2.18A2.56 2.56 0 0 0 40 45a3.2 3.2 0 0 0 2.2.76 5.89 5.89 0 0 0 1.31-.12 6.67 6.67 0 0 0 1-.34 5.22 5.22 0 0 0 .86-.48l.79-.52-.08.34a.62.62 0 0 0 .56.78h2a1.09 1.09 0 0 0 .89-.78L51 38.05a3.71 3.71 0 0 0 .08-.54 4 4 0 0 0 0-.5A2.2 2.2 0 0 0 50 35m-3.69 7.84a5.35 5.35 0 0 1-.82.42 2.94 2.94 0 0 1-1.09.24 2.44 2.44 0 0 1-1.19-.23.81.81 0 0 1-.41-.78 1.58 1.58 0 0 1 .31-1 2.14 2.14 0 0 1 .89-.6 7.72 7.72 0 0 1 1.38-.31c.48-.06 1.42-.17 1.54-.17s.2-.07.15.25c0 .14-.29 1.26-.42 1.76a1 1 0 0 1-.33.43"/><path class="dgcls-2" d="M95.07 31.19H93.2a1.07 1.07 0 0 0-1 .72v.07l-.1.47-2.59 11.69-.12.5a.61.61 0 0 0 .55.77h1.96a1.08 1.08 0 0 0 1-.73v-.07L95.7 32a.62.62 0 0 0-.63-.79M97.9 33.76H97.49a.63.63 0 0 1-.49-.1.76.76 0 0 1-.16-.54V32h-.21v-.25h.23v-.58h.34v.58h.7V32h-.7v1.25l.05.17.11.11a.53.53 0 0 0 .21 0h.31v.31zM101.29 33.78h-.34v-1.41l-.05-.19-.12-.12a.5.5 0 0 0-.22 0 .61.61 0 0 0-.29.07 1.59 1.59 0 0 0-.29.18v1.51h-.35v-1.64l-.12-.12a.53.53 0 0 0-.22 0 .62.62 0 0 0-.28.07 1.68 1.68 0 0 0-.28.17v1.52h-.41v-2h.34V32a1.52 1.52 0 0 1 .34-.23.77.77 0 0 1 .34-.07.66.66 0 0 1 .35.09.55.55 0 0 1 .22.24 1.66 1.66 0 0 1 .38-.25.89.89 0 0 1 .36-.08.59.59 0 0 1 .5.2.9.9 0 0 1 .16.57v1.32z"/></svg>