<?xml version="1.0" encoding="utf-8"?><svg id="bhLayer_1" data-name="Layer 1" xmlns="http://www.w3.org/2000/svg" viewBox="0 0 125.43 78.39" width="32" height="20"><defs><style>.bhcls-1{fill:#f90}.bhcls-2{fill:#231f20;fill-rule:evenodd}</style></defs><title>payment-icons</title><rect class="bhcls-1" width="125.43" height="78.39" rx="4.18" ry="4.18"/><path class="bhcls-2" d="M71.76 47.15c-4.37 3.22-10.7 4.94-16.15 4.94a29.22 29.22 0 0 1-19.73-7.53c-.41-.37 0-.87.45-.59a39.71 39.71 0 0 0 19.74 5.24 39.25 39.25 0 0 0 15.06-3.08c.74-.31 1.36.49.64 1"/><path class="bhcls-2" d="M73.58 45.08c-.56-.71-3.69-.34-5.1-.17-.43 0-.49-.32-.11-.59 2.5-1.76 6.59-1.25 7.07-.66s-.12 4.7-2.47 6.66c-.36.3-.7.14-.54-.26.53-1.32 1.71-4.26 1.15-5M68.58 31.91v-1.7a.42.42 0 0 1 .42-.43h7.65a.43.43 0 0 1 .44.43v1.46a2.36 2.36 0 0 1-.58 1.07l-4 5.66a8.49 8.49 0 0 1 4.36.94.78.78 0 0 1 .4.66v1.82a.41.41 0 0 1-.56.39 8.81 8.81 0 0 0-8.08 0 .41.41 0 0 1-.55-.39V40.1a2.07 2.07 0 0 1 .28-1.17L73 32.34h-4a.43.43 0 0 1-.44-.43M40.69 42.57h-2.33a.44.44 0 0 1-.41-.39V30.24a.44.44 0 0 1 .45-.43h2.17a.44.44 0 0 1 .42.4v1.56a3.2 3.2 0 0 1 6.08 0 3.44 3.44 0 0 1 5.93-.91c.74 1 .59 2.46.59 3.74v7.53a.44.44 0 0 1-.45.43h-2.31a.43.43 0 0 1-.42-.43v-6.32a15.36 15.36 0 0 0-.07-2.24 1.21 1.21 0 0 0-1.37-1 1.54 1.54 0 0 0-1.39 1 7.19 7.19 0 0 0-.22 2.29v6.33a.44.44 0 0 1-.45.43H44.6a.44.44 0 0 1-.42-.43v-6.38c0-1.33.22-3.29-1.43-3.29s-1.61 1.91-1.61 3.29v6.33a.44.44 0 0 1-.45.43M83.68 29.56c3.46 0 5.32 3 5.32 6.73s-2.06 6.53-5.32 6.53-5.23-3-5.23-6.66 1.87-6.61 5.23-6.61m0 2.44c-1.72 0-1.82 2.34-1.82 3.79s0 4.57 1.8 4.57 1.89-2.51 1.89-4a11 11 0 0 0-.35-3.17A1.45 1.45 0 0 0 83.7 32M93.48 42.57h-2.32a.44.44 0 0 1-.42-.43V30.2a.44.44 0 0 1 .45-.39h2.16a.44.44 0 0 1 .41.33V32c.65-1.63 1.56-2.41 3.17-2.41A3.05 3.05 0 0 1 99.69 31a7.6 7.6 0 0 1 .61 3.72v7.51a.44.44 0 0 1-.44.38h-2.34a.44.44 0 0 1-.41-.38v-6.52c0-1.31.15-3.22-1.45-3.22a1.52 1.52 0 0 0-1.35 1 5.31 5.31 0 0 0-.37 2.26v6.43a.44.44 0 0 1-.45.43M62.48 36.87a4.56 4.56 0 0 1-.48 2.47 1.89 1.89 0 0 1-1.61 1.06A1.46 1.46 0 0 1 59 38.71c0-2 1.78-2.34 3.46-2.34v.5zm2.35 5.67a.49.49 0 0 1-.55.05A5.68 5.68 0 0 1 62.95 41a4.61 4.61 0 0 1-3.84 1.69 3.3 3.3 0 0 1-3.48-3.62 4 4 0 0 1 2.48-3.8 16.22 16.22 0 0 1 4.38-.81v-.26a3 3 0 0 0-.28-1.69 1.55 1.55 0 0 0-1.31-.6A1.77 1.77 0 0 0 59 33.3a.49.49 0 0 1-.4.43l-2.26-.24A.41.41 0 0 1 56 33c.52-2.73 3-3.56 5.2-3.56a5.28 5.28 0 0 1 3.5 1.16c1.13 1.06 1 2.47 1 4v3.62a3.17 3.17 0 0 0 .88 2.15.44.44 0 0 1 0 .62c-.48.4-1.32 1.13-1.79 1.55zM32 36.87a4.58 4.58 0 0 1-.43 2.47 1.89 1.89 0 0 1-1.61 1.06 1.46 1.46 0 0 1-1.42-1.69c0-2 1.78-2.34 3.46-2.34v.5zm2.35 5.67a.49.49 0 0 1-.55.05A5.68 5.68 0 0 1 32.45 41a4.61 4.61 0 0 1-3.84 1.69 3.3 3.3 0 0 1-3.48-3.62 4 4 0 0 1 2.48-3.8A16.2 16.2 0 0 1 32 34.5v-.3a3 3 0 0 0-.28-1.69 1.55 1.55 0 0 0-1.31-.6 1.77 1.77 0 0 0-1.87 1.4.5.5 0 0 1-.41.43l-2.25-.24a.41.41 0 0 1-.36-.5c.52-2.73 3-3.56 5.2-3.56a5.28 5.28 0 0 1 3.5 1.16c1.13 1.06 1 2.47 1 4v3.62a3.17 3.17 0 0 0 .88 2.15.44.44 0 0 1 0 .62c-.47.4-1.32 1.13-1.78 1.55z"/></svg>