<?xml version="1.0" encoding="utf-8"?><svg id="bpLayer_1" data-name="Layer 1" xmlns="http://www.w3.org/2000/svg" viewBox="0 0 125.43 78.39" width="32" height="20"><defs><style>.bpcls-1{fill:#13457c}.bpcls-2,.bpcls-6{fill:#fbb231}.bpcls-2,.bpcls-3,.bpcls-5{fill-rule:evenodd}.bpcls-3{fill:#ec1c2e}.bpcls-4,.bpcls-5{fill:#fff}</style></defs><title>payment-icons</title><rect class="bpcls-1" y="-.14" width="125.43" height="78.39" rx="4.18" ry="4.18"/><path class="bpcls-2" d="M77.77 61.7a23.14 23.14 0 0 0 13-4.16 22.49 22.49 0 1 0-28.57-2.13 22.48 22.48 0 0 0 12.12 6 27.3 27.3 0 0 0 3.45.29z"/><path class="bpcls-3" d="M47.66 61.7a23 23 0 0 0 13-4.16A22.52 22.52 0 0 0 62 21.83a22.42 22.42 0 0 0-12.57-5.07 22.53 22.53 0 0 0-22.28 13.09 22.54 22.54 0 0 0 17.06 31.59 27.48 27.48 0 0 0 3.45.26z"/><path class="bpcls-2" d="M60.08 25.33h11.96V24.1H61.11l-1.03 1.23zM58.29 28.04h13.75v-1.22H59.01l-.72 1.22zM56.95 30.75h15.09v-1.22H57.48l-.53 1.22zM56.03 33.47h16.01v-1.22H56.41l-.38 1.22zM56.57 46.6h15.5v-1.22H56.19l.38 1.22zM57.71 49.32h14.36V48.1H57.14l.57 1.22zM59.32 52.03h12.75v-1.22H58.55l.77 1.22zM61.54 54.75h10.53v-1.23h-11.6l1.07 1.23zM55.5 36.18h16.54v-1.22H55.73l-.23 1.22zM65.58 43.89h6.3v-1.22H65.8l-.22 1.22zM66.08 41.18h5.8v-1.23h-5.57l-.23 1.23zM55.08 39.95h1.64v1.23h-1.57l-.07-1.23z"/><path class="bpcls-4" d="M50 38.47a13.39 13.39 0 0 1 2 .11v-.11h.11l.41-1.83-.82-.13c-2.38-.29-5.92.1-5.17 3.43l.14.36.2.31c.67.72 1.62.77 2.39 1.32l.11.13.05.15v.19a.9.9 0 0 1-.27.5L49 43c-.93.39-2.2-.05-3.14-.27l-.38 1.88.22.08a7.32 7.32 0 0 0 4.41.1 2.78 2.78 0 0 0 1.66-3.83l-.17-.25c-.6-.71-1.5-.71-2.23-1.16a1 1 0 0 1-.26-.3V39l.07-.13.12-.13a1.34 1.34 0 0 1 .54-.21zM55.36 38.51h1.34l.3-1.9h-1.26l.26-1.84h-2.18v.11h-.11l-1.05 6c-.16.9-.76 2.5-.31 3.42s2 .71 2.88.57a1.72 1.72 0 0 0 .77-.31l.31-1.66a1.79 1.79 0 0 1-1.53.1l-.08-.06-.06-.07v-.09a41.24 41.24 0 0 1 .72-4.27zM77.07 35c-2.44-.94-5.61-.73-7.13 1.67s-1.83 7 1.6 8.11c1.1.36 3.08.48 4-.41l.35-2.07-.18-.1a2.8 2.8 0 0 1-2.57.51c-2.4-.43-2-3.71-.73-5.11 1-1.19 2.94-1 4.2-.29l.05-.1h.11l.39-2.21zM94.91 34.81l-.5 2.79c-1.35-1.92-4.13-.77-5.2.82-1.31 2-1.49 6.13 1.52 6.61a2.9 2.9 0 0 0 2.5-.76l-.12.73h2.23v-.15h.11l1.74-10.05h-2.28zm-1 5.63c-.11 1.15-.7 2.54-2 2.57L91.6 43l-.25-.17-.2-.25c-.69-1.19.14-4.9 2.11-3.87a2 2 0 0 1 .74 1.73z"/><path class="bpcls-4" d="M46.21 38.55c-.3-2.55-4.44-2.41-6.21-1.65l-.58 2.1a4.57 4.57 0 0 1 2-.5c.61-.06 1.65-.24 2.12.27a1 1 0 0 1 .14.25v.14a1.33 1.33 0 0 1-.08.37 9.65 9.65 0 0 0-1.91 0l-.61.07a3.16 3.16 0 0 0-2.81 2.75 2.33 2.33 0 0 0 2.48 2.64 3.77 3.77 0 0 0 2.29-.81c0 .23-.07.46-.11.69h2.13l.71-3.75a11.05 11.05 0 0 0 .44-2.57zm-2.79 2.83c-.19 1.09-1 2.24-2.36 1.71L41 43l-.1-.11-.07-.15v-.21a1.74 1.74 0 0 1 0-.38l.1-.23a2.65 2.65 0 0 1 2.51-.85zM35.32 34.77l-2.33 5.55-.32-5.55h-3.78l-1.76 10.19h2.29l.03-.22 1.16-6.86.41 7.08h2.5l2.89-6.95-1.22 6.95h2.28l1.8-10.19h-3.95z"/><path class="bpcls-5" d="M83.81 39.16a2.76 2.76 0 0 0 0-.6 2.64 2.64 0 0 0-2.64-2 7.49 7.49 0 0 0-3.38.35c-.17.62-.36 1.24-.54 1.86h.08a6.37 6.37 0 0 1 3.18-.41h.19a1.47 1.47 0 0 1 .31.11.92.92 0 0 1 .39.46v.16a2.91 2.91 0 0 1-.06.45h-1V39.6c-.52 0-1 .08-1.55.16A3.08 3.08 0 0 0 76 42.67 2.21 2.21 0 0 0 77.87 45a3.33 3.33 0 0 0 2.85-.86v.76h2v-.05.05c.11-.57 1.12-5.73 1.12-5.73zm-6.45-.34zm3.76 2.55c-.16 1.11-1 2.23-2.36 1.72l-.12-.09-.09-.11-.06-.15v-.21a1.41 1.41 0 0 1 1.18-1.35 2.84 2.84 0 0 1 1.46-.09zm.24-1.69zM98.89 43.81v-.18l-.06-.2a1.64 1.64 0 0 0-.23-.34l-.18-.09a1.6 1.6 0 0 0-.42-.19h-.42a1.53 1.53 0 0 0-.38.15l-.16.13a1.78 1.78 0 0 0-.24.34l-.06.2v.22a1.41 1.41 0 0 0 .08.42 1.5 1.5 0 0 0 .24.33 1.43 1.43 0 0 0 .34.23 1.37 1.37 0 0 0 .41.08 1.34 1.34 0 0 0 .41-.08 1.16 1.16 0 0 0 .58-.56 1.41 1.41 0 0 0 .09-.42zm-.23.19v.17a1 1 0 0 1-.3.38l-.14.08-.22.09a1.24 1.24 0 0 1-.35 0l-.17-.05-.15-.08a1 1 0 0 1-.33-.39 1.07 1.07 0 0 1 0-.7 1.12 1.12 0 0 1 .17-.28l.12-.11A.88.88 0 0 1 98 43a1.13 1.13 0 0 1 .31.13l.12.11a1.06 1.06 0 0 1 .18.28v.35z"/><path class="bpcls-5" d="M98.24 43.57v-.05l-.07-.09-.17-.05a3.42 3.42 0 0 0-.59 0v.92h.19v-.41h.19l.23.38h.15l-.17-.38h.1v-.32zm-.41.24h-.19v-.3a1.92 1.92 0 0 1 .39 0v.18z"/><path class="bpcls-4" d="M89.22 36.53A2.82 2.82 0 0 0 87 37.69l.18-1.08h-2.32l-1.44 8.22h.11V45h2.23l.78-4.41a2.16 2.16 0 0 1 2.46-1.9l.38-2.18h-.16zM69.48 36.57A2.56 2.56 0 0 0 67 37.65l.21-1h-2.4l-1.44 8.22h.11V45h2.22c.25-1.47.46-2.95.74-4.41a1.89 1.89 0 0 1 2-1.7H68.73a8.05 8.05 0 0 1 .66-1.89 3.84 3.84 0 0 1 .29-.44h-.2z"/><path class="bpcls-2" d="M98.1 52.85h-.46v-.3a1.91 1.91 0 0 1 .39 0v.11h.15v-.12h-.06a3.34 3.34 0 0 0-.65 0v.87h.19v-.35h.19l.23.38h.15l-.23-.38h.1v-.23z"/><path class="bpcls-5" d="M63.78 39.13c-.25-2.81-3.78-3.39-5.78-1.94s-2.54 5.17-.6 6.82a5.52 5.52 0 0 0 4.12.92 3.42 3.42 0 0 0 1.33-.34l.15-.09.35-2.15a4.55 4.55 0 0 1-3.21.66 1.63 1.63 0 0 1-1.5-1.57h4.93a22.8 22.8 0 0 0 .21-2.31zm-4.81.6c.17-1.06 1.72-2.06 2.41-.81a1.57 1.57 0 0 1 .14.81H59z"/><path class="bpcls-6" d="M97.83 53.94a.94.94 0 1 1 .94-.94.94.94 0 0 1-.94.94zm0-1.79a.84.84 0 1 0 .84.84.85.85 0 0 0-.84-.84z"/></svg>