<?xml version="1.0" encoding="utf-8"?><svg id="ciLayer_1" data-name="Layer 1" xmlns="http://www.w3.org/2000/svg" viewBox="0 0 125.43 78.39" width="32" height="20"><defs><style>.cicls-1{fill:#ec1c2e}.cicls-2{fill:#0084c4}.cicls-3{fill:#fff}</style></defs><title>payment-icons</title><path class="cicls-1" d="M77.65 61.7a23.25 23.25 0 0 0 13.05-4.16 22.47 22.47 0 1 0-16.5 3.91 27.48 27.48 0 0 0 3.45.25z"/><path class="cicls-2" d="M47.79 61.7a23.13 23.13 0 0 0 13-4.17 22.5 22.5 0 1 0-16.49 3.91 27.46 27.46 0 0 0 3.49.26z"/><path class="cicls-1" d="M59.94 25.25h11.42V24H61.05l-1.11 1.25zM58.15 27.92h13.21v-1.25H58.95l-.8 1.25zM56.81 30.63h14.55v-1.26H57.43l-.62 1.26zM55.94 33.29h15.42v-1.25H56.33l-.39 1.25zM55.37 35.96h15.99V34.7H55.6l-.23 1.26zM55.25 41.13h16.11v-1.26H55.14l.11 1.26zM55.64 43.95h15.72v-1.26H55.41l.23 1.26zM56.4 46.24h14.96v-1.26H56.01l.39 1.26zM57.54 49.02h13.82v-1.26H56.93l.61 1.26zM59.14 51.84h12.22v-1.26H58.3l.84 1.26zM61.16 54.54h10.09v-1.26h-11.2l1.11 1.26zM96.49 52.98l.07-.2.11-.19.14-.16.16-.14.18-.1.21-.07.21-.02.22.02.21.07.18.1.17.14.13.16.1.19.07.2h-.23l-.04-.15-.08-.15-.11-.13-.13-.11-.14-.08-.17-.05-.18-.02-.18.02-.17.05-.15.08-.13.11-.1.13-.08.15-.05.15h-.22z"/><path class="cicls-1" d="M97.19 52.98v-.27h.42l.09.01h.08l.08.03.06.03.04.03.04.05.02.05.01.07h-.19l-.01-.04-.02-.03-.02-.03-.03-.02-.04-.02-.03-.01h-.31v.15h-.19zM96.47 53.17l.02-.19h.22l-.01.03-.01.16h-.22zM97.19 53.17v-.19h.19v.15h.31l.05-.01.04-.01.02-.02.02-.03.02-.03v-.05h.19l-.01.06-.01.06-.03.05-.02.02h-.77zM98.44 53.17l-.01-.16-.01-.03h.23l.02.19h-.23z"/><path class="cicls-1" d="M96.47 53.17v.22l.07.21a1.68 1.68 0 0 0 .25.34 1.46 1.46 0 0 0 .35.22 1.47 1.47 0 0 0 .42.08 1.59 1.59 0 0 0 .44-.04 1.46 1.46 0 0 0 .35-.2 1.69 1.69 0 0 0 .24-.34l.07-.21v-.26h-.22v.23a1.05 1.05 0 0 1-.24.47l-.14.11-.15.08-.17.05a1.27 1.27 0 0 1-.35 0l-.17-.05a1.11 1.11 0 0 1-.28-.19 1.22 1.22 0 0 1-.18-.29l-.06-.2c.04-.2-.03-.28-.23-.23z"/><path class="cicls-1" d="M97.19 53.17v.46h.19v-.38h.19l.23.38h.19l-.27-.38.06-.01.07-.01.05-.02.05-.03.01-.01h-.77z"/><path class="cicls-3" d="M54.27 37.47c-.36-2.86-3.9-3-6.09-2.83a5.93 5.93 0 0 0-2.42.55L44.9 38c1-.69 6.71-1.72 5.82.91A14.91 14.91 0 0 0 48 39c-2.16.17-4.29 1.23-4.68 3.57a3.25 3.25 0 0 0 3.5 4 5.21 5.21 0 0 0 3.11-1.17c-.06.33-.1.66-.14 1h2.89c.26-1.46.53-2.91.82-4.37a18.39 18.39 0 0 0 .77-4.56zm-3.84 3.76a3.85 3.85 0 0 1-.62 1.88 2.75 2.75 0 0 1-2.35.79 1.17 1.17 0 0 1-.42-2 3 3 0 0 1 1.54-.84c.31-.06 2.01-.43 1.85.17zM71.64 37.21a11.19 11.19 0 0 0 1.13.15v-.11h.1l.56-2.52c-.66-.06-1.3-.18-2-.21h-.62c-2.14-.05-5.1.12-5.6 2.73a3.23 3.23 0 0 0 .82 3.41c.81.67 2.71.8 3.15 1.77v.25a1.48 1.48 0 0 1-.3.75 1.41 1.41 0 0 1-.3.23c-1.34.51-3.09-.08-4.42-.35l-.5 2.52a9.12 9.12 0 0 0 3.1.52c1.62 0 3.45.08 4.76-1.05a4 4 0 0 0 .87-4.51 3.57 3.57 0 0 0-2.21-1.43 3.18 3.18 0 0 1-1.37-.67 1 1 0 0 1-.24-.5c-.07-1.14 2-1.05 2.68-1zM78.46 43.66a2.16 2.16 0 0 1-2-.05l-.07-.12a6.74 6.74 0 0 1 .33-2.5l.61-3.67h1.87l.45-2.58h-1.8l.46-2.59h-3.2l-1.82 10.72a4.6 4.6 0 0 0-.12 2.45c.41.94 1.73 1 2.61 1A5.31 5.31 0 0 0 78 46a1.88 1.88 0 0 0 .29-.15l.33-2.23z"/><path class="cicls-3" d="M63.57 42.95a6.39 6.39 0 0 1-4.27.79 2.26 2.26 0 0 1-2.1-2.3h6.85l.13-.74c.48-2.27.22-4.95-2.29-5.83A5.75 5.75 0 0 0 54 39.45a5.84 5.84 0 0 0 1.17 5.34c1.34 1.34 3.3 1.57 5.1 1.54a6 6 0 0 0 3-.6l.51-2.9zm-2.31-4v.18h-3.63a2.22 2.22 0 0 1 1.9-2A1.61 1.61 0 0 1 61.26 39zM39.1 32.2l-3.27 7.92-.47-7.92h-5.23l-2.47 14.14h3.11l1.78-10.11.59 10.11h3.41l4.15-10.06-1.76 10.06h3.11l2.48-14.14H39.1zM86 37.82h.41c.06-.32.13-.64.22-1a6.14 6.14 0 0 1 .3-.82 4.16 4.16 0 0 1 .18-.4c.15-.32.35-.61.5-.93h-.2a3.53 3.53 0 0 0-3.53 1.62l.29-1.57h-3.23l-2 11.47h.11v.11h3.1c.34-2 .66-4 1-6A2.7 2.7 0 0 1 86 37.82zM96.47 45.67h.87v.11H97v.72h-.19v-.72h-.34v-.11zM97.45 45.67h.27l.31.64.3-.64h.27v.83h-.2v-.64l-.3.64h-.15l-.31-.64v.64h-.19v-.83z"/><path class="cicls-3" d="M97.72 40.13a5.37 5.37 0 0 0-5.72-5.5 6.21 6.21 0 0 0-6 7.74c.82 4 5.69 5.22 9 3.31a6.31 6.31 0 0 0 2.72-5.55zM94 39.6a5.15 5.15 0 0 1-1 3.07 2 2 0 0 1-3 .12c-1.18-1.6-.16-5.15 1.9-5.5 1.53-.29 2.18.98 2.1 2.31z"/></svg>