<?xml version="1.0" encoding="utf-8"?><svg id="ceLayer_1" data-name="Layer 1" xmlns="http://www.w3.org/2000/svg" viewBox="0 0 125.43 78.39" width="32" height="20"><defs><style>.cecls-1{fill:none}.cecls-2{clip-path:url(#ceclip-path)}.cecls-3{clip-path:url(#ceclip-path-2)}.cecls-4{fill:#009ddd}.cecls-5{fill:#007cc3}.cecls-6{fill:#fff}</style><clipPath id="ceclip-path"><path class="cecls-1" d="M25.16 16.73h75.1v44.94h-75.1z"/></clipPath><clipPath id="ceclip-path-2"><path class="cecls-1" d="M25.16 16.73h75.1v44.94h-75.1z"/></clipPath></defs><title>payment-icons</title><g class="cecls-2 cecls-3"><path class="cecls-4" d="M97.27 51.72a.73.73 0 1 1 .73.73.73.73 0 0 1-.73-.73m.73.55a.55.55 0 1 0-.55-.55.55.55 0 0 0 .55.55m-.1-.27h-.15v-.6H98.16l.08.16-.11.17.14.27h-.17l-.1-.21h-.1V52zm0-.36h.17v-.14h-.17v.16zM90.46 43.66a.55.55 0 1 0 .55.55.55.55 0 0 0-.55-.55m.11.87l-.1-.25h-.11v.25h-.15v-.64H90.64l.08.16-.11.16.12.28h-.16z"/><path class="cecls-4" d="M90.44 44.01h-.08v.16h.08l.09-.01.04-.07-.04-.07-.09-.01"/><path class="cecls-5" d="M68.88 39.72l.9-4.25a22.47 22.47 0 1 0-.26 8.75c-.8-.84-1.12-2.3-.65-4.51m-24.32 4.88a9.84 9.84 0 0 1-6 .08 5 5 0 0 1-3.4-4 6.69 6.69 0 0 1 3.69-7 12.4 12.4 0 0 1 8.16-.32c-.2.88-.3 1.38-.58 2.45-1.69-.72-4-1.09-5.69 0a4.6 4.6 0 0 0-2.07 4.48 2.75 2.75 0 0 0 1.69 2.08 5.67 5.67 0 0 0 4.8-.49c-.24 1.09-.42 1.94-.63 2.72m5.34.36h-3.41l2-9.6h3.44zm7.27-5.79c-.57.89-1.07 3.83-1.49 5.78h-3.55l.17-.65c.63-3 1.43-6 1.89-9h3.15a7 7 0 0 1-.2 1.48A3.91 3.91 0 0 1 61 35.3L59.92 38a2.31 2.31 0 0 0-2.76 1.17m7.82 0c-.57.89-1.07 3.83-1.49 5.78h-3.58l.16-.65c.63-3 1.43-6 1.89-9h3.15a6.72 6.72 0 0 1-.2 1.48 3.91 3.91 0 0 1 3.93-1.53L67.74 38A2.31 2.31 0 0 0 65 39.16"/><path class="cecls-4" d="M77.8 16.73a22.39 22.39 0 0 0-15.08 5.82 23 23 0 0 0-2.27 2.38H65a22.55 22.55 0 0 1 1.7 2.37h-8a22.49 22.49 0 0 0-1.3 2.38H68a22.33 22.33 0 0 1 1 2.38H56.48a22.73 22.73 0 0 0-.65 2.38h13.76c.07.34.14.68.2 1v-.13h3.43l-.93 4.38c-.32 1.49-.24 2.63 1.27 2.63 1.78 0 2.32-1.08 2.65-2.62l.93-4.38h3.46l-1.54 7c-.17.82-.34 1.7-.44 2.56H75.4l.27-1.55a4.72 4.72 0 0 1-3.91 1.7 3 3 0 0 1-2.24-.88c-.16.72-.35 1.43-.58 2.12H56.48a23.09 23.09 0 0 0 1 2.38H68a22.84 22.84 0 0 1-1.3 2.38h-8a22.6 22.6 0 0 0 1.71 2.38H65a22.31 22.31 0 0 1-2.27 2.38A22.47 22.47 0 1 0 77.8 16.73m12.66 28.21a.73.73 0 1 1 .73-.73.73.73 0 0 1-.73.73"/><path class="cecls-6" d="M81.73 38.38c0 1.22.8 2 2.62 2.67 1.4.49 1.62.63 1.62 1.06 0 .61-.63.86-2 .86a12.67 12.67 0 0 1-3.09-.37s-.43 2-.48 2.22a25.4 25.4 0 0 0 3.6.27c3.63 0 5.31-1 5.31-3.2 0-1.31-.71-2.08-2.43-2.67-1.45-.48-1.61-.59-1.61-1s.6-.82 1.73-.82c.67 0 1.61.06 2.48.15l.48-2.23c-.89-.1-2.25-.19-3-.19-3.85 0-5.19 1.48-5.18 3.25"/></g></svg>